<svg width="38" height="38" viewBox="0 0 38 38" fill="none" xmlns="http://www.w3.org/2000/svg">
    <path d="M8.49775 11.875H0V38H8.49775V11.875Z" fill="#1976D2"/>
    <path d="M31.6445 12.1814C31.5543 12.1529 31.4688 12.122 31.3738 12.0959C31.2598 12.0697 31.1457 12.0484 31.0294 12.0294C30.5781 11.9391 30.0841 11.875 29.5046 11.875C24.5504 11.875 21.4082 15.4779 20.3728 16.8696V11.875H11.875V38H20.3728V23.75C20.3728 23.75 26.7948 14.8057 29.5046 21.375C29.5046 27.2389 29.5046 38 29.5046 38H38V20.3704C38 16.4231 35.2949 13.1338 31.6445 12.1814Z" fill="#1976D2"/>
    <path d="M4.15625 8.3125C6.45168 8.3125 8.3125 6.45168 8.3125 4.15625C8.3125 1.86082 6.45168 0 4.15625 0C1.86082 0 0 1.86082 0 4.15625C0 6.45168 1.86082 8.3125 4.15625 8.3125Z" fill="#1976D2"/>
</svg>
