<svg width="38" height="38" viewBox="0 0 38 38" fill="none" xmlns="http://www.w3.org/2000/svg">
    <path d="M18.9998 38.0005C29.4931 38.0005 37.9996 29.494 37.9996 19.0008C37.9996 8.50747 29.4931 0.000976562 18.9998 0.000976562C8.50649 0.000976562 0 8.50747 0 19.0008C0 29.494 8.50649 38.0005 18.9998 38.0005Z" fill="#41B4E6"/>
    <path d="M37.9974 18.9999C37.9974 18.5369 37.9799 18.0781 37.9474 17.6234L30.0729 9.74902L7.92188 18.4622L16.397 26.9374L16.5082 27.3376L16.6521 27.1925L16.6527 27.1931L16.5082 27.3376L25.8833 36.7127C32.9726 33.9547 37.9974 27.0645 37.9974 18.9999Z" fill="#0091C8"/>
    <path d="M17.1561 21.768L25.7426 28.2508L30.0769 9.74902L7.92578 18.4622L14.6661 20.6948L26.9673 12.4435L17.1561 21.768Z" fill="white"/>
    <path d="M14.6641 20.6957L16.5101 27.3386L17.1541 21.7689L26.9653 12.4443L14.6641 20.6957Z" fill="#D2D2D7"/>
    <path d="M19.9463 23.8755L16.5117 27.3382L17.1557 21.7686L19.9463 23.8755Z" fill="#B9B9BE"/>
</svg>
