<svg width="19" height="18" viewBox="0 0 19 18" fill="none" xmlns="http://www.w3.org/2000/svg">
<path d="M16.1722 0.407227H2.57778C1.15643 0.407227 0 1.56342 0 2.98501V11.3045C0 12.7229 1.15139 13.8773 2.56863 13.8823V17.6576L7.99415 13.8823H16.1722C17.5936 13.8823 18.75 12.7259 18.75 11.3045V2.98501C18.75 1.56342 17.5936 0.407227 16.1722 0.407227ZM17.6514 11.3045C17.6514 12.12 16.9878 12.7837 16.1722 12.7837H7.64946L3.66726 15.5547V12.7837H2.57778C1.76216 12.7837 1.09863 12.12 1.09863 11.3045V2.98501C1.09863 2.16927 1.76216 1.50586 2.57778 1.50586H16.1722C16.9878 1.50586 17.6514 2.16927 17.6514 2.98501V11.3045Z" fill="#969696"/>
</svg>
