<svg width="27" height="15" viewBox="0 0 27 15" fill="none" xmlns="http://www.w3.org/2000/svg">
<path d="M26.6405 6.97999C26.401 6.71156 20.6941 0.407227 13.4053 0.407227C6.11656 0.407227 0.40939 6.71156 0.170134 6.97973C-0.0567114 7.2344 -0.0567114 7.5798 0.170134 7.83446C0.40939 8.1029 6.11656 14.4072 13.4053 14.4072C20.6941 14.4072 26.401 8.10285 26.6405 7.83468C26.8676 7.58006 26.8676 7.2344 26.6405 6.97999ZM13.4053 12.959C8.03637 12.959 3.38629 8.77465 2.00977 7.40673C3.38451 6.03762 8.02485 1.8555 13.4053 1.8555C18.774 1.8555 23.4237 6.03908 24.8008 7.40772C23.4261 8.77679 18.7858 12.959 13.4053 12.959Z" fill="#969696"/>
<path d="M13.3895 3.04688C10.9938 3.04688 9.04468 4.99602 9.04468 7.39172C9.04468 9.78743 10.9938 11.7366 13.3895 11.7366C15.7852 11.7366 17.7344 9.78743 17.7344 7.39172C17.7344 4.99602 15.7852 3.04688 13.3895 3.04688ZM13.3895 10.2883C11.7923 10.2883 10.493 8.9889 10.493 7.39172C10.493 5.79454 11.7923 4.49519 13.3895 4.49519C14.9867 4.49519 16.2861 5.79454 16.2861 7.39172C16.2861 8.9889 14.9867 10.2883 13.3895 10.2883Z" fill="#969696"/>
<circle cx="13.4861" cy="7.48833" r="3.14947" fill="#969696"/>
</svg>
