<svg width="20" height="19" viewBox="0 0 20 19" fill="none" xmlns="http://www.w3.org/2000/svg">
<path d="M13.4439 0.266602H6.63823C3.50646 0.266602 0.966797 2.76394 0.966797 5.8435V12.5358C0.966797 15.6153 3.50646 18.1127 6.63823 18.1127H13.4439C16.5757 18.1127 19.1154 15.6153 19.1154 12.5358V5.8435C19.1154 2.76394 16.5757 0.266602 13.4439 0.266602ZM17.4139 12.5358C17.4139 14.6885 15.6331 16.4396 13.4439 16.4396H6.63823C4.44905 16.4396 2.66823 14.6885 2.66823 12.5358V5.8435C2.66823 3.69082 4.44905 1.93967 6.63823 1.93967H13.4439C15.6331 1.93967 17.4139 3.69082 17.4139 5.8435V12.5358Z" fill="#666666"/>
<path d="M10.041 4.72852C7.53541 4.72852 5.50391 6.72616 5.50391 9.19003C5.50391 11.6539 7.53541 13.6516 10.041 13.6516C12.5467 13.6516 14.5782 11.6539 14.5782 9.19003C14.5782 6.72616 12.5467 4.72852 10.041 4.72852ZM10.041 11.9785C8.478 11.9785 7.20533 10.727 7.20533 9.19003C7.20533 7.65193 8.478 6.40158 10.041 6.40158C11.6041 6.40158 12.8767 7.65193 12.8767 9.19003C12.8767 10.727 11.6041 11.9785 10.041 11.9785Z" fill="#666666"/>
<path d="M14.919 4.98782C15.2529 4.98782 15.5236 4.72166 15.5236 4.39332C15.5236 4.06499 15.2529 3.79883 14.919 3.79883C14.5851 3.79883 14.3145 4.06499 14.3145 4.39332C14.3145 4.72166 14.5851 4.98782 14.919 4.98782Z" fill="#666666"/>
</svg>
