<svg width="18" height="24" viewBox="0 0 18 24" fill="none" xmlns="http://www.w3.org/2000/svg">
<path d="M8.6489 18.0693C8.36075 18.0693 8.17465 18.0948 8.06445 18.1201V21.8552C8.17487 21.8807 8.35273 21.8807 8.51343 21.8807C9.68197 21.8889 10.4444 21.2456 10.4444 19.8818C10.4526 18.696 9.75831 18.0693 8.6489 18.0693Z" fill="#666666"/>
<path d="M3.66063 18.0527C3.39824 18.0527 3.22037 18.078 3.12695 18.1033V19.7889C3.23724 19.8142 3.37284 19.8229 3.55846 19.8229C4.24503 19.8229 4.6683 19.4755 4.6683 18.8912C4.66835 18.3662 4.30395 18.0527 3.66063 18.0527Z" fill="#666666"/>
<path d="M17.7021 5.75127C17.7007 5.64121 17.6658 5.5325 17.5902 5.44657L12.9626 0.160958C12.9617 0.159477 12.9599 0.158998 12.9589 0.157647C12.9314 0.126841 12.8997 0.101438 12.8657 0.0790412C12.8555 0.0725053 12.845 0.066623 12.8344 0.0606535C12.805 0.0447058 12.7742 0.0314596 12.7416 0.0217865C12.7333 0.0192592 12.725 0.0156862 12.7163 0.0134205C12.6814 0.00496731 12.6451 0 12.6087 0H1.2361C0.71723 0 0.294922 0.422352 0.294922 0.941218V23.0588C0.294922 23.5779 0.71723 24 1.2361 24H16.7655C17.2843 24 17.7067 23.5779 17.7067 23.0588V5.804C17.7066 5.78631 17.7039 5.76897 17.7021 5.75127ZM5.42175 20.2123C4.98149 20.6272 4.32929 20.8139 3.5669 20.8139C3.39775 20.8139 3.24485 20.8051 3.12672 20.7886V22.8295H1.84786V17.1971C2.24572 17.1296 2.80502 17.0786 3.59282 17.0786C4.38877 17.0786 4.95631 17.2311 5.33731 17.5358C5.70171 17.8239 5.94667 18.2982 5.94667 18.857C5.94667 19.4163 5.76079 19.8906 5.42175 20.2123ZM10.868 22.1521C10.2673 22.6516 9.35259 22.8888 8.23495 22.8888C7.56571 22.8888 7.09168 22.8465 6.76929 22.8042V17.1971C7.24366 17.1213 7.86222 17.0786 8.5142 17.0786C9.59773 17.0786 10.3009 17.2734 10.8517 17.6884C11.4447 18.1289 11.8174 18.8318 11.8174 19.8396C11.8169 20.9324 11.4189 21.6861 10.868 22.1521ZM16.1542 18.1797H13.9603V19.4839H16.0099V20.5345H13.9603V22.8295H12.6648V17.1213H16.1542V18.1797ZM1.2361 15.9804V0.941218H12.1382V5.75668C12.1382 6.01642 12.3487 6.22726 12.6087 6.22726H16.7655L16.7659 15.9804H1.2361Z" fill="#666666"/>
<path d="M13.8286 10.1144C13.801 10.1118 13.1379 10.0513 12.12 10.0513C11.8011 10.0513 11.4799 10.0575 11.1627 10.0695C9.15258 8.56098 7.50613 7.05131 6.6247 6.20525C6.64078 6.11209 6.65184 6.03845 6.65698 5.9819C6.77324 4.75467 6.644 3.92617 6.27415 3.51937C6.03197 3.25353 5.67629 3.16508 5.3054 3.26639C5.07507 3.32674 4.64871 3.55018 4.5122 4.00504C4.36148 4.50769 4.60374 5.11776 5.24021 5.82521C5.25032 5.83593 5.46631 6.06224 5.85877 6.44573C5.6037 7.66198 4.93599 10.2866 4.61202 11.5469C3.85111 11.9535 3.21712 12.4433 2.72632 13.0051L2.69416 13.0419L2.67338 13.086C2.62283 13.1922 2.38122 13.7434 2.56261 14.1862C2.64545 14.3875 2.80065 14.5346 3.0115 14.6118L3.06801 14.627C3.06801 14.627 3.119 14.638 3.20862 14.638C3.60122 14.638 4.57028 14.4317 5.09006 12.5162L5.21598 12.0309C7.03032 11.149 9.29824 10.8645 10.9421 10.7853C11.7877 11.4123 12.6291 11.9884 13.4444 12.4985L13.471 12.5139C13.5106 12.5341 13.8681 12.7106 14.2868 12.711C14.8851 12.711 15.3222 12.3438 15.4849 11.7039L15.4931 11.6602C15.5386 11.2945 15.4467 10.9649 15.2275 10.7072C14.7657 10.1643 13.9059 10.117 13.8286 10.1144ZM3.22327 13.9318C3.21961 13.9274 3.21786 13.9233 3.21603 13.9187C3.17699 13.8247 3.22383 13.5967 3.29276 13.4297C3.58871 13.0988 3.94396 12.7951 4.35389 12.5216C3.95468 13.8139 3.37411 13.9256 3.22327 13.9318ZM5.75799 5.34577C5.14492 4.66334 5.15411 4.32499 5.1871 4.21109C5.24121 4.02072 5.48548 3.94878 5.48757 3.94813C5.61062 3.91467 5.68531 3.92125 5.7518 3.99423C5.90217 4.15942 6.03132 4.65793 5.9803 5.57235C5.83555 5.42691 5.75799 5.34577 5.75799 5.34577ZM5.44121 11.1572L5.4518 11.1168L5.45041 11.1173C5.75738 9.91496 6.20008 8.15449 6.45463 7.02364L6.46383 7.0324L6.46474 7.02699C7.28827 7.8025 8.55101 8.93684 10.0629 10.1166L10.046 10.1173L10.071 10.1362C8.64665 10.2565 6.94548 10.5373 5.44121 11.1572ZM14.7951 11.5516C14.6866 11.9502 14.478 12.0046 14.2868 12.0046C14.0649 12.0046 13.8512 11.9123 13.8025 11.8899C13.2473 11.542 12.6793 11.1628 12.1062 10.7571C12.1108 10.7571 12.1149 10.7571 12.12 10.7571C13.1025 10.7571 13.7569 10.8168 13.7826 10.8186C13.9467 10.8247 14.466 10.9014 14.6898 11.1645C14.7776 11.2676 14.8112 11.3909 14.7951 11.5516Z" fill="#666666"/>
</svg>
