<svg width="18" height="24" viewBox="0 0 18 24" fill="none" xmlns="http://www.w3.org/2000/svg">
<path d="M8.35398 18.0693C8.06583 18.0693 7.87973 18.0948 7.76953 18.1201V21.8552C7.87994 21.8807 8.05781 21.8807 8.21851 21.8807C9.38704 21.8889 10.1494 21.2456 10.1494 19.8818C10.1577 18.696 9.46338 18.0693 8.35398 18.0693Z" fill="#666666"/>
<path d="M3.36571 18.0527C3.10332 18.0527 2.92545 18.078 2.83203 18.1033V19.7889C2.94231 19.8142 3.07791 19.8229 3.26353 19.8229C3.95011 19.8229 4.37338 19.4755 4.37338 18.8912C4.37342 18.3662 4.00902 18.0527 3.36571 18.0527Z" fill="#666666"/>
<path d="M17.4071 5.75127C17.4058 5.64121 17.3709 5.5325 17.2953 5.44657L12.6677 0.160958C12.6668 0.159477 12.665 0.158998 12.664 0.157647C12.6364 0.126841 12.6048 0.101438 12.5707 0.0790412C12.5606 0.0725053 12.55 0.066623 12.5394 0.0606535C12.51 0.0447058 12.4792 0.0314596 12.4466 0.0217865C12.4384 0.0192592 12.4301 0.0156862 12.4214 0.0134205C12.3865 0.00496731 12.3502 0 12.3138 0H0.941174C0.422308 0 0 0.422352 0 0.941218V23.0588C0 23.5779 0.422308 24 0.941174 24H16.4705C16.9894 24 17.4118 23.5779 17.4118 23.0588V5.804C17.4117 5.78631 17.409 5.76897 17.4071 5.75127ZM5.12683 20.2123C4.68657 20.6272 4.03437 20.8139 3.27197 20.8139C3.10282 20.8139 2.94993 20.8051 2.8318 20.7886V22.8295H1.55294V17.1971C1.9508 17.1296 2.5101 17.0786 3.2979 17.0786C4.09385 17.0786 4.66138 17.2311 5.04238 17.5358C5.40678 17.8239 5.65175 18.2982 5.65175 18.857C5.65175 19.4163 5.46587 19.8906 5.12683 20.2123ZM10.573 22.1521C9.97239 22.6516 9.05767 22.8888 7.94002 22.8888C7.27079 22.8888 6.79676 22.8465 6.47436 22.8042V17.1971C6.94874 17.1213 7.5673 17.0786 8.21928 17.0786C9.30281 17.0786 10.0059 17.2734 10.5567 17.6884C11.1498 18.1289 11.5225 18.8318 11.5225 19.8396C11.522 20.9324 11.124 21.6861 10.573 22.1521ZM15.8593 18.1797H13.6654V19.4839H15.715V20.5345H13.6654V22.8295H12.3699V17.1213H15.8593V18.1797ZM0.941174 15.9804V0.941218H11.8432V5.75668C11.8432 6.01642 12.0537 6.22726 12.3138 6.22726H16.4705L16.471 15.9804H0.941174Z" fill="#666666"/>
<path d="M13.5337 10.1144C13.5061 10.1118 12.843 10.0513 11.8251 10.0513C11.5061 10.0513 11.1849 10.0575 10.8678 10.0695C8.85766 8.56098 7.21121 7.05131 6.32977 6.20525C6.34585 6.11209 6.35692 6.03845 6.36206 5.9819C6.47831 4.75467 6.34908 3.92617 5.97923 3.51937C5.73705 3.25353 5.38137 3.16508 5.01047 3.26639C4.78015 3.32674 4.35379 3.55018 4.21727 4.00504C4.06656 4.50769 4.30882 5.11776 4.94529 5.82521C4.9554 5.83593 5.17139 6.06224 5.56385 6.44573C5.30877 7.66198 4.64106 10.2866 4.3171 11.5469C3.55619 11.9535 2.9222 12.4433 2.43139 13.0051L2.39924 13.0419L2.37845 13.086C2.32791 13.1922 2.0863 13.7434 2.26769 14.1862C2.35052 14.3875 2.50573 14.5346 2.71658 14.6118L2.77309 14.627C2.77309 14.627 2.82407 14.638 2.9137 14.638C3.30629 14.638 4.27536 14.4317 4.79514 12.5162L4.92106 12.0309C6.73539 11.149 9.00332 10.8645 10.6472 10.7853C11.4928 11.4123 12.3342 11.9884 13.1495 12.4985L13.1761 12.5139C13.2156 12.5341 13.5732 12.7106 13.9919 12.711C14.5902 12.711 15.0272 12.3438 15.1899 11.7039L15.1982 11.6602C15.2437 11.2945 15.1518 10.9649 14.9325 10.7072C14.4708 10.1643 13.6109 10.117 13.5337 10.1144ZM2.92834 13.9318C2.92468 13.9274 2.92294 13.9233 2.92111 13.9187C2.88207 13.8247 2.92891 13.5967 2.99784 13.4297C3.29379 13.0988 3.64904 12.7951 4.05897 12.5216C3.65976 13.8139 3.07919 13.9256 2.92834 13.9318ZM5.46307 5.34577C4.85 4.66334 4.85919 4.32499 4.89217 4.21109C4.94629 4.02072 5.19056 3.94878 5.19265 3.94813C5.3157 3.91467 5.39039 3.92125 5.45688 3.99423C5.60725 4.15942 5.7364 4.65793 5.68538 5.57235C5.54063 5.42691 5.46307 5.34577 5.46307 5.34577ZM5.14629 11.1572L5.15688 11.1168L5.15549 11.1173C5.46246 9.91496 5.90516 8.15449 6.15971 7.02364L6.1689 7.0324L6.16982 7.02699C6.99335 7.8025 8.25609 8.93684 9.76802 10.1166L9.75103 10.1173L9.77604 10.1362C8.35173 10.2565 6.65056 10.5373 5.14629 11.1572ZM14.5002 11.5516C14.3917 11.9502 14.1831 12.0046 13.9919 12.0046C13.7699 12.0046 13.5563 11.9123 13.5075 11.8899C12.9524 11.542 12.3844 11.1628 11.8113 10.7571C11.8159 10.7571 11.82 10.7571 11.8251 10.7571C12.8076 10.7571 13.462 10.8168 13.4877 10.8186C13.6518 10.8247 14.1711 10.9014 14.3949 11.1645C14.4827 11.2676 14.5163 11.3909 14.5002 11.5516Z" fill="#666666"/>
</svg>
