<svg width="19" height="18" viewBox="0 0 19 18" fill="none" xmlns="http://www.w3.org/2000/svg">
<g clip-path="url(#clip0)">
<path d="M10.7733 7.97153C11.6601 8.85024 11.6601 10.2749 10.7733 11.1536C9.88639 12.0323 8.44851 12.0323 7.56164 11.1536C6.67477 10.2749 6.67477 8.85024 7.56164 7.97153C8.44851 7.09282 9.88639 7.09282 10.7733 7.97153Z" fill="white"/>
<path d="M15.9802 3.37459H14.4112L13.2751 1.12451H5.05894L3.92399 3.3757L2.35716 3.37846C1.10802 3.38067 0.0911627 4.38924 0.0900841 5.62743L0.0839844 14.6244C0.0839844 15.8653 1.10248 16.875 2.35496 16.875H15.9802C17.2327 16.875 18.2512 15.8659 18.2512 14.6249V5.62463C18.2512 4.38371 17.2327 3.37459 15.9802 3.37459ZM9.1673 14.0624C6.66289 14.0624 4.62534 12.0436 4.62534 9.56226C4.62534 7.0809 6.66289 5.0621 9.1673 5.0621C11.6717 5.0621 13.7092 7.0809 13.7092 9.56226C13.7092 12.0436 11.6717 14.0624 9.1673 14.0624Z" fill="white"/>
</g>
<defs>
<clipPath id="clip0">
<rect width="18.1672" height="18" fill="white" transform="translate(0.0839844)"/>
</clipPath>
</defs>
</svg>
