<svg width="19" height="19" viewBox="0 0 19 19" fill="none" xmlns="http://www.w3.org/2000/svg">
<path d="M13.7415 12.1163L13.6149 12.2893L13.7664 12.4408L18.6464 17.3208L17.3208 18.6464L12.4409 13.7665L12.2893 13.6149L12.1164 13.7416C10.8802 14.6468 9.36299 15.1876 7.71873 15.1876C3.60084 15.1876 0.25 11.8367 0.25 7.71878C0.25 3.60086 3.60081 0.25 7.7187 0.25C11.8366 0.25 15.1874 3.60086 15.1874 7.71878C15.1874 9.36305 14.6468 10.8801 13.7415 12.1163ZM2.12501 7.71878C2.12501 10.8036 4.63395 13.3125 7.71873 13.3125C10.8035 13.3125 13.3125 10.8036 13.3125 7.71878C13.3125 4.63398 10.8035 2.12502 7.71873 2.12502C4.63395 2.12502 2.12501 4.63398 2.12501 7.71878Z" fill="#969696" stroke="#F8F8F8" stroke-width="0.5"/>
</svg>
