<svg width="38" height="36" viewBox="0 0 38 36" fill="none" xmlns="http://www.w3.org/2000/svg">
    <path d="M37.2551 26.7901C32.1747 25.9541 29.8851 20.7502 29.7925 20.5293C29.7854 20.5151 29.7806 20.5008 29.7711 20.4866C29.5122 19.9593 29.4505 19.5247 29.593 19.1945C29.8709 18.5438 30.9349 18.2065 31.638 17.9832C31.8422 17.9191 32.0346 17.8573 32.1937 17.7956C32.8873 17.5225 33.3813 17.2256 33.7091 16.8907C34.0986 16.4893 34.1746 16.1045 34.1698 15.8551C34.158 15.2471 33.6924 14.7056 32.949 14.4419C32.6996 14.3398 32.4122 14.2852 32.1225 14.2852C31.9254 14.2852 31.6308 14.3113 31.353 14.4419C30.7592 14.7198 30.2271 14.8718 29.7687 14.8932C29.5265 14.8813 29.3555 14.8291 29.2439 14.7792C29.2581 14.5417 29.2724 14.2971 29.289 14.0453L29.2961 13.936C29.46 11.3638 29.6619 8.16452 28.8116 6.26443C28.2297 4.96287 27.4483 3.84419 26.4863 2.9369C25.6812 2.17687 24.7454 1.55934 23.7051 1.10332C21.8976 0.305279 20.2113 0.186523 19.3658 0.186523H19.3634C19.3301 0.186523 19.2993 0.186523 19.2708 0.186523C19.0356 0.188899 18.6532 0.193649 18.6176 0.193649C17.7744 0.193649 16.0857 0.312404 14.2735 1.11044C13.2356 1.56646 12.3046 2.18162 11.5018 2.94165C10.5446 3.84894 9.76557 4.96525 9.18604 6.26206C8.33575 8.15977 8.53764 11.359 8.69914 13.9289V13.9337C8.71577 14.2092 8.73477 14.4966 8.7514 14.7768C8.62789 14.8315 8.42601 14.8932 8.12912 14.8932C7.64934 14.8932 7.07932 14.7412 6.43566 14.4396C6.24565 14.3517 6.02952 14.3066 5.79201 14.3066C5.40962 14.3066 5.00347 14.4182 4.65433 14.6248C4.21256 14.8837 3.92755 15.2471 3.84917 15.6532C3.79929 15.9193 3.80167 16.4489 4.39069 16.9857C4.71608 17.2802 5.1911 17.5533 5.80626 17.7956C5.96777 17.8597 6.16015 17.9191 6.36203 17.9832C7.06507 18.2065 8.13149 18.5438 8.40938 19.1945C8.54951 19.5247 8.48776 19.9593 8.22887 20.4866C8.22175 20.5008 8.21462 20.5151 8.20987 20.5293C8.14337 20.6814 7.53771 22.047 6.29553 23.4887C5.59012 24.3082 4.81346 24.9946 3.98692 25.5266C2.9775 26.1774 1.88733 26.6001 0.744898 26.7878C0.296002 26.8614 -0.024638 27.2604 0.0014882 27.7141C0.00861354 27.8447 0.03949 27.9753 0.0941175 28.1012V28.1036C0.277001 28.5287 0.697396 28.8874 1.38143 29.2033C2.21747 29.5904 3.46677 29.9158 5.09848 30.1699C5.1816 30.3267 5.26711 30.7186 5.32649 30.987C5.38824 31.272 5.45237 31.5665 5.545 31.8776C5.64475 32.2149 5.90126 32.6187 6.56392 32.6187C6.81568 32.6187 7.10307 32.5617 7.43796 32.4975C7.92723 32.4025 8.59701 32.2719 9.43068 32.2719C9.89382 32.2719 10.3736 32.3123 10.8557 32.393C11.7868 32.5474 12.5896 33.1127 13.5182 33.7682C14.8768 34.7278 16.4159 35.8132 18.7672 35.8132C18.8314 35.8132 18.8955 35.8108 18.9596 35.8061C19.0356 35.8108 19.133 35.8132 19.2328 35.8132C21.5841 35.8132 23.1232 34.7278 24.4818 33.7706L24.4841 33.7682C25.4128 33.1151 26.2156 32.5498 27.1466 32.3954C27.6288 32.3147 28.1085 32.2743 28.5717 32.2743C29.3697 32.2743 30.0015 32.3764 30.5644 32.4857C30.9326 32.5569 31.2176 32.5925 31.4385 32.5925H31.4598H31.4812C31.9657 32.5925 32.322 32.3265 32.4574 31.8634C32.5476 31.557 32.6118 31.272 32.6759 30.9798C32.7305 30.7281 32.8208 30.3243 32.9015 30.1676C34.5332 29.911 35.7825 29.588 36.6186 29.2009C37.3002 28.885 37.7206 28.5263 37.9035 28.1036C37.9581 27.9777 37.9914 27.8471 37.9985 27.7117C38.0246 27.2628 37.704 26.8614 37.2551 26.7901Z" fill="#FFEB3B"/>
</svg>
