<svg width="18" height="20" viewBox="0 0 18 20" fill="none" xmlns="http://www.w3.org/2000/svg">
<path d="M14.9317 6.25C13.2406 6.25 11.8635 4.84833 11.8635 3.125C11.8635 1.40167 13.2406 0 14.9317 0C16.623 0 17.9999 1.40167 17.9999 3.125C17.9999 4.84833 16.623 6.25 14.9317 6.25ZM14.9317 1.25C13.9172 1.25 13.0908 2.09076 13.0908 3.125C13.0908 4.15924 13.9172 5 14.9317 5C15.9462 5 16.7726 4.15924 16.7726 3.125C16.7726 2.09076 15.9462 1.25 14.9317 1.25Z" fill="#666666"/>
<path d="M14.9317 20C13.2406 20 11.8635 18.5983 11.8635 16.875C11.8635 15.1517 13.2406 13.75 14.9317 13.75C16.623 13.75 17.9999 15.1517 17.9999 16.875C17.9999 18.5983 16.623 20 14.9317 20ZM14.9317 15C13.9172 15 13.0908 15.8408 13.0908 16.875C13.0908 17.9092 13.9172 18.75 14.9317 18.75C15.9462 18.75 16.7726 17.9092 16.7726 16.875C16.7726 15.8408 15.9462 15 14.9317 15Z" fill="#666666"/>
<path d="M3.06818 13.125C1.37694 13.125 0 11.7233 0 10C0 8.27667 1.37694 6.875 3.06818 6.875C4.75943 6.875 6.13636 8.27667 6.13636 10C6.13636 11.7233 4.75943 13.125 3.06818 13.125ZM3.06818 8.125C2.05364 8.125 1.22727 8.96576 1.22727 10C1.22727 11.0342 2.05364 11.875 3.06818 11.875C4.08272 11.875 4.90909 11.0342 4.90909 10C4.90909 8.96576 4.08272 8.125 3.06818 8.125Z" fill="#666666"/>
<path d="M5.2045 9.3913C4.99086 9.3913 4.78307 9.27793 4.67101 9.07636C4.50322 8.77637 4.60554 8.39459 4.90008 8.22385L12.492 3.81543C12.7857 3.64301 13.1612 3.74799 13.3281 4.04889C13.4959 4.34888 13.3936 4.7305 13.0991 4.9014L5.50712 9.30966C5.41139 9.3646 5.30757 9.3913 5.2045 9.3913Z" fill="#666666"/>
<path d="M12.7955 16.2667C12.6924 16.2667 12.5884 16.24 12.4927 16.1843L4.90074 11.7759C4.60621 11.6052 4.50404 11.2234 4.67168 10.9234C4.83857 10.6227 5.2134 10.5184 5.50794 10.6901L13.0997 15.0984C13.3943 15.2693 13.4966 15.6509 13.329 15.9509C13.216 16.1533 13.0082 16.2667 12.7955 16.2667Z" fill="#666666"/>
</svg>
