<svg width="0" height="0" class="hidden">
    <symbol viewBox="0 0 23 21" fill="none" xmlns="http://www.w3.org/2000/svg" id="telegram">
        <path fill="#57A4FF" d="M.986 0h21.28v21H.986z"></path>
        <path d="M5.095 10.263l3.12 1.149 1.208 3.833a.37.37 0 0 0 .583.173l1.74-1.399a.524.524 0 0 1 .632-.018l3.137 2.248a.369.369 0 0 0 .576-.22L18.39 5.122a.366.366 0 0 0-.492-.412L5.091 9.584a.361.361 0 0 0 .004.679zm4.133.537l6.098-3.706c.11-.067.223.08.128.166l-5.032 4.616a1.03 1.03 0 0 0-.324.616l-.171 1.254c-.023.168-.261.184-.308.022l-.66-2.286a.602.602 0 0 1 .27-.682z"
              fill="#fff"></path>
    </symbol>
    <symbol viewBox="0 0 9 20" xmlns="http://www.w3.org/2000/svg" id="facebook">
        <path d="M5.493 6.558V4.173c0-.658.486-1.192 1.085-1.192h1.085V0h-2.17C3.695 0 2.238 1.601 2.238 3.577v2.981H.068V9.54h2.17v9.54h3.255V9.54h2.17l1.085-2.98H5.493z" fill="#666"></path>
    </symbol>
    <symbol viewBox="0 0 24 17" xmlns="http://www.w3.org/2000/svg" id="youtube">
        <path d="M22.522 2.295C21.9 1.206 21.224 1.005 19.848.93 18.473.838 15.018.8 12.023.8c-3 0-6.457.038-7.83.128-1.373.078-2.05.277-2.679 1.367C.873 3.383.543 5.256.543 8.555v.011c0 3.284.33 5.172.971 6.248.629 1.09 1.304 1.287 2.677 1.379 1.375.079 4.832.125 7.832.125 2.994 0 6.45-.046 7.826-.124 1.376-.092 2.052-.29 2.674-1.378.648-1.077.975-2.964.975-6.249v-.011c0-3.3-.328-5.173-.976-6.26zM9.151 12.791V4.327l7.173 4.232-7.173 4.232z"
              ></path>
    </symbol>
    <symbol viewBox="0 0 20 17" xmlns="http://www.w3.org/2000/svg" id="twitter">
        <path d="M19.912 2.666a8.542 8.542 0 0 1-2.33.628 3.967 3.967 0 0 0 1.78-2.198 8.165 8.165 0 0 1-2.565.962A4.085 4.085 0 0 0 13.843.8C11.603.8 9.8 2.587 9.8 4.778c0 .315.027.618.094.906a11.512 11.512 0 0 1-8.336-4.16 3.953 3.953 0 0 0-.554 2.01c0 1.378.722 2.599 1.797 3.306a4.046 4.046 0 0 1-1.827-.49v.044c0 1.932 1.401 3.537 3.24 3.907-.33.089-.688.131-1.06.131-.26 0-.52-.014-.766-.068a4.074 4.074 0 0 0 3.779 2.77 8.214 8.214 0 0 1-5.015 1.697c-.331 0-.65-.015-.967-.055a11.526 11.526 0 0 0 6.204 1.785c7.442 0 11.51-6.062 11.51-11.317 0-.175-.006-.345-.015-.514a7.993 7.993 0 0 0 2.027-2.064z"
              ></path>
    </symbol>
    <symbol viewBox="0 0 20 19" xmlns="http://www.w3.org/2000/svg" id="insta">
        <path d="M13.444.267H6.638C3.506.267.967 2.764.967 5.844v6.692c0 3.08 2.54 5.577 5.671 5.577h6.806c3.132 0 5.671-2.498 5.671-5.577V5.844c0-3.08-2.54-5.577-5.671-5.577zm3.97 12.269c0 2.152-1.78 3.904-3.97 3.904H6.638c-2.189 0-3.97-1.752-3.97-3.904V5.844c0-2.153 1.781-3.904 3.97-3.904h6.806c2.19 0 3.97 1.75 3.97 3.903v6.693z"
              ></path>
        <path d="M10.041 4.729c-2.506 0-4.537 1.997-4.537 4.461 0 2.464 2.031 4.462 4.537 4.462s4.537-1.998 4.537-4.462c0-2.464-2.031-4.461-4.537-4.461zm0 7.25c-1.563 0-2.836-1.252-2.836-2.789 0-1.538 1.273-2.788 2.836-2.788s2.836 1.25 2.836 2.788c0 1.537-1.273 2.789-2.836 2.789zm4.878-6.991a.6.6 0 0 0 .605-.595.6.6 0 0 0-.605-.594.6.6 0 0 0-.604.594.6.6 0 0 0 .604.595z"
              ></path>
    </symbol>
    <symbol viewBox="0 0 19 18" fill="none" xmlns="http://www.w3.org/2000/svg" id="photo">
        <g clip-path="url(#clip0)" fill="#fff">
            <path d="M10.773 7.972a2.236 2.236 0 0 1 0 3.182 2.286 2.286 0 0 1-3.211 0 2.235 2.235 0 0 1 0-3.182 2.286 2.286 0 0 1 3.211 0z"></path>
            <path d="M15.98 3.375h-1.569l-1.136-2.25H5.06l-1.135 2.25-1.567.003C1.108 3.381.091 4.39.09 5.628l-.006 8.996a2.263 2.263 0 0 0 2.271 2.251H15.98a2.263 2.263 0 0 0 2.271-2.25v-9a2.262 2.262 0 0 0-2.27-2.25zM9.167 14.062c-2.504 0-4.542-2.018-4.542-4.5 0-2.481 2.038-4.5 4.542-4.5 2.505 0 4.542 2.019 4.542 4.5 0 2.482-2.037 4.5-4.542 4.5z"></path>
        </g>
        <defs>
            <clipPath id="clip0">
                <path fill="#fff" transform="translate(.084)" d="M0 0h18.167v18H0z"></path>
            </clipPath>
        </defs>
    </symbol>
    <symbol viewBox="0 0 35 40" xmlns="http://www.w3.org/2000/svg" id="play">
        <path d="M34.31 20.3L.093 39.752V.848L34.31 20.3z"></path>
    </symbol>
    <symbol viewBox="0 0 13 13" xmlns="http://www.w3.org/2000/svg" id="close">
        <path d="M7.09 6.677l5.556 5.557-.412.412L6.677 7.09 6.5 6.912l-.177.177-5.557 5.557-.412-.412L5.91 6.677l.177-.177-.177-.177L.354.766.766.354 6.323 5.91l.177.177.177-.177L12.234.354l.412.412L7.09 6.323l-.177.177.177.177z" 
        stroke-width=".5"></path>
    </symbol>
    <symbol viewBox="0 0 19 19" xmlns="http://www.w3.org/2000/svg" id="search">
        <path d="M13.742 12.116l-.127.173.151.152 4.88 4.88-1.325 1.325-4.88-4.88-.152-.151-.173.127a7.418 7.418 0 0 1-4.397 1.446C3.6 15.188.25 11.837.25 7.718.25 3.602 3.6.25 7.719.25c4.118 0 7.468 3.35 7.468 7.469 0 1.644-.54 3.161-1.445 4.397zM2.124 7.72a5.6 5.6 0 0 0 5.594 5.593 5.6 5.6 0 0 0 5.593-5.593A5.6 5.6 0 0 0 7.72 2.125a5.6 5.6 0 0 0-5.594 5.594z"
        stroke-width=".5"></path>
    </symbol>
    <symbol viewBox="0 0 9 7" xmlns="http://www.w3.org/2000/svg" id="arrow-lang">
        <path d="M4.5 7L0.602887 0.249999L8.39711 0.25L4.5 7Z"/>
    </symbol>
</svg>
