<svg width="0" height="0" class="hidden">
    <symbol viewBox="0 0 23 21" fill="none" xmlns="http://www.w3.org/2000/svg" id="telegram">
        <path fill="#57A4FF" d="M.986 0h21.28v21H.986z"></path>
        <path d="M5.095 10.263l3.12 1.149 1.208 3.833a.37.37 0 0 0 .583.173l1.74-1.399a.524.524 0 0 1 .632-.018l3.137 2.248a.369.369 0 0 0 .576-.22L18.39 5.122a.366.366 0 0 0-.492-.412L5.091 9.584a.361.361 0 0 0 .004.679zm4.133.537l6.098-3.706c.11-.067.223.08.128.166l-5.032 4.616a1.03 1.03 0 0 0-.324.616l-.171 1.254c-.023.168-.261.184-.308.022l-.66-2.286a.602.602 0 0 1 .27-.682z"
              fill="#fff"></path>
    </symbol>
    <symbol viewBox="0 0 9 20" xmlns="http://www.w3.org/2000/svg" id="facebook">
        <path d="M5.493 6.558V4.173c0-.658.486-1.192 1.085-1.192h1.085V0h-2.17C3.695 0 2.238 1.601 2.238 3.577v2.981H.068V9.54h2.17v9.54h3.255V9.54h2.17l1.085-2.98H5.493z" fill="#666"></path>
    </symbol>
    <symbol viewBox="0 0 24 17" xmlns="http://www.w3.org/2000/svg" id="youtube">
        <path d="M22.522 2.295C21.9 1.206 21.224 1.005 19.848.93 18.473.838 15.018.8 12.023.8c-3 0-6.457.038-7.83.128-1.373.078-2.05.277-2.679 1.367C.873 3.383.543 5.256.543 8.555v.011c0 3.284.33 5.172.971 6.248.629 1.09 1.304 1.287 2.677 1.379 1.375.079 4.832.125 7.832.125 2.994 0 6.45-.046 7.826-.124 1.376-.092 2.052-.29 2.674-1.378.648-1.077.975-2.964.975-6.249v-.011c0-3.3-.328-5.173-.976-6.26zM9.151 12.791V4.327l7.173 4.232-7.173 4.232z"
              ></path>
    </symbol>
    <symbol viewBox="0 0 20 17" xmlns="http://www.w3.org/2000/svg" id="twitter">
        <path d="M19.912 2.666a8.542 8.542 0 0 1-2.33.628 3.967 3.967 0 0 0 1.78-2.198 8.165 8.165 0 0 1-2.565.962A4.085 4.085 0 0 0 13.843.8C11.603.8 9.8 2.587 9.8 4.778c0 .315.027.618.094.906a11.512 11.512 0 0 1-8.336-4.16 3.953 3.953 0 0 0-.554 2.01c0 1.378.722 2.599 1.797 3.306a4.046 4.046 0 0 1-1.827-.49v.044c0 1.932 1.401 3.537 3.24 3.907-.33.089-.688.131-1.06.131-.26 0-.52-.014-.766-.068a4.074 4.074 0 0 0 3.779 2.77 8.214 8.214 0 0 1-5.015 1.697c-.331 0-.65-.015-.967-.055a11.526 11.526 0 0 0 6.204 1.785c7.442 0 11.51-6.062 11.51-11.317 0-.175-.006-.345-.015-.514a7.993 7.993 0 0 0 2.027-2.064z"
              ></path>
    </symbol>
    <symbol viewBox="0 0 20 19" xmlns="http://www.w3.org/2000/svg" id="insta">
        <path d="M13.444.267H6.638C3.506.267.967 2.764.967 5.844v6.692c0 3.08 2.54 5.577 5.671 5.577h6.806c3.132 0 5.671-2.498 5.671-5.577V5.844c0-3.08-2.54-5.577-5.671-5.577zm3.97 12.269c0 2.152-1.78 3.904-3.97 3.904H6.638c-2.189 0-3.97-1.752-3.97-3.904V5.844c0-2.153 1.781-3.904 3.97-3.904h6.806c2.19 0 3.97 1.75 3.97 3.903v6.693z"
              ></path>
        <path d="M10.041 4.729c-2.506 0-4.537 1.997-4.537 4.461 0 2.464 2.031 4.462 4.537 4.462s4.537-1.998 4.537-4.462c0-2.464-2.031-4.461-4.537-4.461zm0 7.25c-1.563 0-2.836-1.252-2.836-2.789 0-1.538 1.273-2.788 2.836-2.788s2.836 1.25 2.836 2.788c0 1.537-1.273 2.789-2.836 2.789zm4.878-6.991a.6.6 0 0 0 .605-.595.6.6 0 0 0-.605-.594.6.6 0 0 0-.604.594.6.6 0 0 0 .604.595z"
              ></path>
    </symbol>
    <symbol viewBox="0 0 19 18" fill="none" xmlns="http://www.w3.org/2000/svg" id="photo">
        <g clip-path="url(#clip0)" fill="#fff">
            <path d="M10.773 7.972a2.236 2.236 0 0 1 0 3.182 2.286 2.286 0 0 1-3.211 0 2.235 2.235 0 0 1 0-3.182 2.286 2.286 0 0 1 3.211 0z"></path>
            <path d="M15.98 3.375h-1.569l-1.136-2.25H5.06l-1.135 2.25-1.567.003C1.108 3.381.091 4.39.09 5.628l-.006 8.996a2.263 2.263 0 0 0 2.271 2.251H15.98a2.263 2.263 0 0 0 2.271-2.25v-9a2.262 2.262 0 0 0-2.27-2.25zM9.167 14.062c-2.504 0-4.542-2.018-4.542-4.5 0-2.481 2.038-4.5 4.542-4.5 2.505 0 4.542 2.019 4.542 4.5 0 2.482-2.037 4.5-4.542 4.5z"></path>
        </g>
        <defs>
            <clipPath id="clip0">
                <path fill="#fff" transform="translate(.084)" d="M0 0h18.167v18H0z"></path>
            </clipPath>
        </defs>
    </symbol>
    <symbol viewBox="0 0 35 40" xmlns="http://www.w3.org/2000/svg" id="play">
        <path d="M34.31 20.3L.093 39.752V.848L34.31 20.3z"></path>
    </symbol>

    <symbol viewBox="0 0 27 15" xmlns="http://www.w3.org/2000/svg" id="eye">
        <path d="M26.64 6.98C26.401 6.712 20.694.407 13.405.407 6.117.407.41 6.712.17 6.98a.622.622 0 0 0 0 .854c.24.269 5.947 6.573 13.235 6.573 7.29 0 12.996-6.304 13.236-6.572a.621.621 0 0 0 0-.855zm-13.235 5.979c-5.369 0-10.019-4.184-11.395-5.552 1.375-1.37 6.015-5.551 11.395-5.551 5.369 0 10.019 4.183 11.396 5.552-1.375 1.369-6.015 5.551-11.396 5.551z"
              ></path>
        <path d="M13.39 3.047a4.35 4.35 0 0 0-4.345 4.345 4.35 4.35 0 0 0 4.345 4.345 4.35 4.35 0 0 0 4.344-4.345 4.35 4.35 0 0 0-4.345-4.345zm0 7.241a2.9 2.9 0 0 1-2.897-2.896 2.9 2.9 0 0 1 2.896-2.897 2.9 2.9 0 0 1 2.897 2.897 2.9 2.9 0 0 1-2.897 2.896z"
              ></path>
        <circle cx="13.486" cy="7.488" r="3.149"></circle>
    </symbol>
    <symbol viewBox="0 0 19 18" xmlns="http://www.w3.org/2000/svg" id="comments">
        <path d="M16.172.407H2.578A2.58 2.58 0 0 0 0 2.985v8.32a2.58 2.58 0 0 0 2.569 2.577v3.776l5.425-3.776h8.178a2.58 2.58 0 0 0 2.578-2.577v-8.32A2.58 2.58 0 0 0 16.172.407zm1.48 10.898c0 .815-.664 1.479-1.48 1.479H7.65l-3.982 2.77v-2.77h-1.09a1.48 1.48 0 0 1-1.478-1.48V2.986c0-.816.663-1.48 1.479-1.48h13.594c.816 0 1.48.664 1.48 1.48v8.32z"
              ></path>
    </symbol>
    <symbol viewBox="0 0 18 20" xmlns="http://www.w3.org/2000/svg" id="shared">
        <path d="M14.932 6.25c-1.691 0-3.069-1.402-3.069-3.125S13.242 0 14.933 0 18 1.402 18 3.125 16.623 6.25 14.932 6.25zm0-5c-1.015 0-1.841.84-1.841 1.875 0 1.034.826 1.875 1.84 1.875 1.015 0 1.842-.84 1.842-1.875 0-1.034-.827-1.875-1.841-1.875zm0 18.75c-1.691 0-3.069-1.402-3.069-3.125s1.378-3.125 3.069-3.125S18 15.152 18 16.875 16.623 20 14.932 20zm0-5c-1.015 0-1.841.84-1.841 1.875 0 1.034.826 1.875 1.84 1.875 1.015 0 1.842-.84 1.842-1.875 0-1.034-.827-1.875-1.841-1.875zM3.068 13.125C1.377 13.125 0 11.723 0 10s1.377-3.125 3.068-3.125S6.136 8.277 6.136 10s-1.377 3.125-3.068 3.125zm0-5c-1.014 0-1.84.84-1.84 1.875 0 1.034.826 1.875 1.84 1.875 1.015 0 1.841-.84 1.841-1.875 0-1.034-.826-1.875-1.84-1.875z"
              ></path>
        <path d="M5.205 9.391a.61.61 0 0 1-.534-.315.631.631 0 0 1 .23-.852l7.591-4.409a.605.605 0 0 1 .836.234.63.63 0 0 1-.229.852L5.507 9.31a.606.606 0 0 1-.302.081zm7.591 6.876a.6.6 0 0 1-.303-.083L4.9 11.776a.631.631 0 0 1-.23-.853.605.605 0 0 1 .837-.233l7.592 4.408a.632.632 0 0 1 .229.853.611.611 0 0 1-.534.316z"
              ></path>
    </symbol>
    <symbol viewBox="0 0 23 24" xmlns="http://www.w3.org/2000/svg" id="tag">
        <g clip-path="url(#clip0)">
            <path d="M22.178.343h-9.036a.821.821 0 0 0-.58.24L.24 12.905c-.32.32-.32.84 0 1.162l9.036 9.035c.32.32.84.32 1.162 0l12.321-12.321A.822.822 0 0 0 23 10.2V1.164a.821.821 0 0 0-.82-.821zm-.821 9.517l-11.5 11.5-7.874-7.874 11.5-11.5h7.874V9.86z"></path>
            <path d="M17.25 3.628a2.464 2.464 0 1 0 0 4.929 2.464 2.464 0 0 0 0-4.929zm0 3.286a.821.821 0 1 1 0-1.643.821.821 0 0 1 0 1.643z"></path>
        </g>
        <defs>
            <clipPath id="clip0">
                <path transform="translate(0 .343)" d="M0 0h23v23H0z"></path>
            </clipPath>
        </defs>
    </symbol>
    <symbol viewBox="0 0 19 15" xmlns="http://www.w3.org/2000/svg" id="mail">
        <path d="M17.219.375H1.78C.8.375 0 1.174 0 2.156v10.688c0 .982.799 1.781 1.781 1.781H17.22c.982 0 1.781-.799 1.781-1.781V2.156c0-.982-.799-1.781-1.781-1.781zm0 1.187a.59.59 0 0 1 .227.046L9.5 8.496 1.554 1.608a.591.591 0 0 1 .227-.046H17.22zm0 11.875H1.78a.594.594 0 0 1-.593-.593v-9.98L9.11 9.73a.593.593 0 0 0 .778 0l7.924-6.867v9.98a.594.594 0 0 1-.594.595z"
              ></path>
    </symbol>
    <symbol viewBox="0 0 9 7" xmlns="http://www.w3.org/2000/svg" id="triangle">
        <path d="M4.5 7L.603.25h7.794L4.5 7z"></path>
    </symbol>
    <symbol viewBox="0 0 13 13" xmlns="http://www.w3.org/2000/svg" id="close">
        <path d="M7.08917 6.67678L12.6464 12.2341L12.2341 12.6464L6.67678 7.08917L6.5 6.91239L6.32322 7.08917L0.765945 12.6464L0.353554 12.2341L5.91083 6.67678L6.08761 6.5L5.91083 6.32322L0.353553 0.765945L0.765945 0.353553L6.32322 5.91083L6.5 6.08761L6.67678 5.91083L12.2341 0.353554L12.6464 0.765945L7.08917 6.32322L6.91239 6.5L7.08917 6.67678Z" fill="#969696" stroke="#969696" stroke-width="0.5"/>
    </symbol>
    <symbol viewBox="0 0 25 25" xmlns="http://www.w3.org/2000/svg" id="send">
        <path d="M24.482 11.688L1.268.974a.898.898 0 0 0-1.067.25.888.888 0 0 0-.022 1.096L7.813 12.5.179 22.677a.89.89 0 0 0 .02 1.096.89.89 0 0 0 1.068.25L24.48 13.31a.892.892 0 0 0 .002-1.622z"></path>
    </symbol>
</svg>
