<svg width="23" height="24" viewBox="0 0 23 24" fill="none" xmlns="http://www.w3.org/2000/svg">
<g clip-path="url(#clip0)">
<path d="M22.1783 0.342773H13.1425C12.9247 0.342822 12.7158 0.429409 12.5618 0.583476L0.240278 12.905C-0.0804183 13.2258 -0.0804183 13.7458 0.240278 14.0665L9.27605 23.1023C9.59684 23.4229 10.1168 23.4229 10.4375 23.1023L22.7591 10.7807C22.9131 10.6267 22.9997 10.4178 22.9998 10.2V1.16422C22.9998 0.710542 22.632 0.342773 22.1783 0.342773ZM21.3569 9.8599L9.85679 21.36L1.98252 13.4857L13.4826 1.98563H21.3569V9.8599Z" fill="#696969"/>
<path d="M17.2499 3.62842C15.8889 3.62842 14.7856 4.73172 14.7856 6.09272C14.7856 7.45372 15.8889 8.55703 17.2499 8.55703C18.6109 8.55703 19.7143 7.45372 19.7143 6.09272C19.7143 4.73172 18.6109 3.62842 17.2499 3.62842ZM17.2499 6.91413C16.7963 6.91413 16.4285 6.54636 16.4285 6.09267C16.4285 5.63899 16.7963 5.27122 17.2499 5.27122C17.7036 5.27122 18.0714 5.63899 18.0714 6.09267C18.0714 6.54636 17.7036 6.91413 17.2499 6.91413Z" fill="#696969"/>
</g>
<defs>
<clipPath id="clip0">
<rect width="23" height="23" fill="white" transform="translate(0 0.342773)"/>
</clipPath>
</defs>
</svg>
