<svg width="23" height="21" viewBox="0 0 23 21" fill="none" xmlns="http://www.w3.org/2000/svg">
<rect x="0.986328" width="21.28" height="21" fill="#57A4FF"/>
<path d="M5.09467 10.2627L8.215 11.4119L9.42276 15.245C9.50005 15.4904 9.80425 15.5811 10.0061 15.4182L11.7455 14.019C11.9277 13.8723 12.1875 13.8651 12.3779 14.0015L15.5151 16.2492C15.7311 16.404 16.0371 16.2873 16.0912 16.0298L18.3894 5.12098C18.4485 4.83962 18.1685 4.60493 17.897 4.70857L5.09105 9.58376C4.77499 9.70394 4.7777 10.1455 5.09467 10.2627ZM9.2281 10.8002L15.3264 7.09371C15.4359 7.02731 15.5487 7.17355 15.4545 7.25971L10.4218 11.8764C10.2448 12.0388 10.1307 12.2564 10.0984 12.4924L9.92703 13.7462C9.9042 13.9136 9.66604 13.9301 9.61914 13.7681L8.9598 11.4819C8.88435 11.2211 8.99436 10.9425 9.2281 10.8002Z" fill="white"/>
</svg>
