<svg width="20" height="17" viewBox="0 0 20 17" fill="none" xmlns="http://www.w3.org/2000/svg">
<path d="M19.9122 2.66564C19.1787 2.98207 18.397 3.19181 17.582 3.29365C18.4204 2.80143 19.0603 2.02793 19.3611 1.09562C18.5795 1.5539 17.7164 1.8776 16.7967 2.05824C16.0544 1.28112 14.9966 0.799805 13.8426 0.799805C11.6036 0.799805 9.80108 2.58684 9.80108 4.77759C9.80108 5.0928 9.8282 5.3959 9.89478 5.68444C6.53261 5.52319 3.55758 3.93863 1.55902 1.5248C1.2101 2.12007 1.00544 2.80143 1.00544 3.53491C1.00544 4.91216 1.72669 6.13302 2.8018 6.83983C2.15205 6.8277 1.51463 6.64221 0.974615 6.35003C0.974615 6.36215 0.974615 6.37791 0.974615 6.39368C0.974615 8.32619 2.37644 9.93137 4.21472 10.3011C3.88553 10.3896 3.52676 10.4321 3.15441 10.4321C2.8955 10.4321 2.63412 10.4175 2.38877 10.3642C2.91276 11.9391 4.39966 13.0969 6.16767 13.1344C4.79173 14.1928 3.04468 14.8306 1.15339 14.8306C0.821733 14.8306 0.50364 14.816 0.185547 14.776C1.97698 15.912 4.10006 16.5606 6.38959 16.5606C13.8315 16.5606 17.9001 10.4988 17.9001 5.24435C17.9001 5.06856 17.894 4.89882 17.8853 4.73031C18.688 4.17019 19.3624 3.47065 19.9122 2.66564Z" fill="#666666"/>
</svg>
