<svg width="37" height="37" viewBox="0 0 37 37" fill="none" xmlns="http://www.w3.org/2000/svg">
    <mask id="mask0" mask-type="alpha" maskUnits="userSpaceOnUse" x="0" y="0" width="37" height="38">
        <rect y="0.0556641" width="36.9444" height="36.9444" rx="18.4722" fill="#C4C4C4"/>
    </mask>
    <g mask="url(#mask0)">
        <path d="M38 -1H0V37H38V-1Z" fill="#7D3DAF"/>
        <path d="M31.0167 11.2485L31.0091 11.2185C30.4021 8.76457 27.6655 6.13135 25.1524 5.58352L25.124 5.57769C21.0591 4.80223 16.9375 4.80223 12.8734 5.57769L12.8443 5.58352C10.3319 6.13135 7.59533 8.76457 6.98747 11.2185L6.9808 11.2485C6.23036 14.6756 6.23036 18.1509 6.9808 21.578L6.98747 21.608C7.5694 23.9572 10.1022 26.4694 12.5216 27.1603V29.8996C12.5216 30.891 13.7298 31.378 14.4169 30.6626L17.1922 27.7776C17.7942 27.8113 18.3965 27.8301 18.9987 27.8301C21.0449 27.8301 23.092 27.6366 25.124 27.2489L25.1524 27.2431C27.6655 26.6952 30.4021 24.062 31.0091 21.6081L31.0167 21.578C31.7671 18.1509 31.7671 14.6756 31.0167 11.2485ZM28.8204 21.081C28.4151 22.6819 26.3372 24.6723 24.6862 25.04C22.5249 25.451 20.3464 25.6267 18.1702 25.5664C18.1269 25.5652 18.0853 25.582 18.0551 25.613C17.7462 25.93 16.0286 27.6932 16.0286 27.6932L13.8732 29.9054C13.7156 30.0696 13.4388 29.9579 13.4388 29.7311V25.1933C13.4388 25.1183 13.3852 25.0546 13.3116 25.0402C13.3112 25.0401 13.3108 25.04 13.3104 25.0399C11.6594 24.6722 9.58234 22.6819 9.17626 21.0809C8.50086 17.9833 8.50086 14.8431 9.17626 11.7454C9.58234 10.1445 11.6594 8.15412 13.3104 7.78641C17.0851 7.06848 20.9124 7.06848 24.6862 7.78641C26.3381 8.15412 28.4151 10.1445 28.8204 11.7454C29.4965 14.8432 29.4965 17.9833 28.8204 21.081Z" fill="white"/>
        <path d="M22.5906 23.1751C22.3368 23.098 22.0949 23.0462 21.8703 22.953C19.5426 21.9873 17.4003 20.7414 15.7034 18.8315C14.7384 17.7454 13.9831 16.5193 13.3447 15.2217C13.0419 14.6063 12.7868 13.9669 12.5267 13.3316C12.2896 12.7522 12.6388 12.1537 13.0066 11.7172C13.3518 11.3076 13.7959 10.994 14.2768 10.763C14.6522 10.5826 15.0225 10.6866 15.2967 11.0048C15.8894 11.6927 16.4338 12.4158 16.8746 13.2132C17.1457 13.7036 17.0713 14.3032 16.58 14.6369C16.4606 14.7181 16.3518 14.8133 16.2406 14.9049C16.143 14.9852 16.0512 15.0664 15.9843 15.1751C15.8621 15.374 15.8562 15.6087 15.935 15.825C16.5408 17.49 17.562 18.7846 19.2378 19.482C19.506 19.5935 19.7753 19.7234 20.0842 19.6874C20.6016 19.627 20.7691 19.0595 21.1317 18.763C21.4861 18.4732 21.9389 18.4694 22.3206 18.7109C22.7025 18.9526 23.0726 19.212 23.4405 19.4741C23.8016 19.7314 24.1611 19.9832 24.4943 20.2765C24.8145 20.5586 24.9249 20.9286 24.7445 21.3115C24.4143 22.0125 23.9338 22.5958 23.2408 22.9681C23.0451 23.0731 22.8114 23.1071 22.5906 23.1751C22.3368 23.0979 22.8114 23.1071 22.5906 23.1751Z" fill="white"/>
        <path d="M19.006 9.9622C22.0507 10.0475 24.5514 12.0681 25.0873 15.0782C25.1786 15.5911 25.2111 16.1155 25.2517 16.6361C25.2688 16.855 25.1448 17.0631 24.9085 17.0659C24.6645 17.0688 24.5546 16.8646 24.5388 16.6457C24.5074 16.2125 24.4857 15.7773 24.426 15.3476C24.1108 13.0795 22.3022 11.2031 20.0447 10.8004C19.705 10.7398 19.3572 10.7239 19.0131 10.6878C18.7956 10.665 18.5107 10.6518 18.4625 10.3814C18.422 10.1547 18.6134 9.97413 18.8293 9.96254C18.888 9.95929 18.947 9.96195 19.006 9.9622C22.0507 10.0475 18.947 9.96195 19.006 9.9622Z" fill="white"/>
        <path d="M23.6324 15.9601C23.6274 15.9981 23.6247 16.0875 23.6025 16.1717C23.5217 16.4774 23.0582 16.5157 22.9515 16.2072C22.9199 16.1156 22.9151 16.0115 22.915 15.9129C22.9139 15.268 22.7737 14.6238 22.4485 14.0627C22.1142 13.4861 21.6035 13.0013 21.0045 12.7079C20.6423 12.5306 20.2506 12.4203 19.8536 12.3546C19.68 12.326 19.5047 12.3085 19.3303 12.2843C19.119 12.2549 19.0062 12.1203 19.0162 11.912C19.0256 11.7169 19.1682 11.5766 19.3808 11.5886C20.0795 11.6283 20.7544 11.7793 21.3756 12.1082C22.6389 12.7772 23.3605 13.8332 23.5711 15.2432C23.5806 15.3071 23.5959 15.3703 23.6008 15.4345C23.6127 15.5928 23.6202 15.7513 23.6324 15.9601C23.6274 15.9981 23.6202 15.7513 23.6324 15.9601Z" fill="white"/>
        <path d="M21.737 15.8864C21.4823 15.8909 21.3459 15.7499 21.3197 15.5164C21.3014 15.3535 21.287 15.1885 21.2481 15.0301C21.1716 14.7181 21.0057 14.4289 20.7433 14.2377C20.6193 14.1474 20.4789 14.0816 20.3318 14.0392C20.145 13.9852 19.951 14.0001 19.7645 13.9544C19.5621 13.9048 19.4501 13.7409 19.4819 13.5509C19.5109 13.3781 19.679 13.2431 19.8679 13.2568C21.0483 13.342 21.892 13.9523 22.0124 15.342C22.0209 15.44 22.0309 15.5437 22.0092 15.6375C21.9719 15.7981 21.853 15.8785 21.737 15.8864C21.4823 15.8909 21.853 15.8785 21.737 15.8864Z" fill="white"/>
    </g>
</svg>
