<svg width="24" height="17" viewBox="0 0 24 17" fill="none" xmlns="http://www.w3.org/2000/svg">
<path d="M22.5221 2.29521C21.8994 1.2061 21.2237 1.00578 19.8479 0.929594C18.4734 0.837895 15.0173 0.799805 12.0232 0.799805C9.02329 0.799805 5.56574 0.837895 4.19276 0.928184C2.81979 1.00578 2.14262 1.20469 1.51424 2.29521C0.872942 3.3829 0.542969 5.25639 0.542969 8.55474C0.542969 8.55756 0.542969 8.55897 0.542969 8.55897C0.542969 8.56179 0.542969 8.5632 0.542969 8.5632V8.56602C0.542969 11.8503 0.872942 13.7379 1.51424 14.8143C2.14262 15.9034 2.81835 16.1009 4.19133 16.1926C5.56574 16.2716 9.02329 16.3181 12.0232 16.3181C15.0173 16.3181 18.4734 16.2716 19.8493 16.194C21.2251 16.1023 21.9009 15.9048 22.5235 14.8157C23.1705 13.7393 23.4977 11.8517 23.4977 8.56743C23.4977 8.56743 23.4977 8.5632 23.4977 8.56038C23.4977 8.56038 23.4977 8.55756 23.4977 8.55615C23.4977 5.25639 23.1705 3.3829 22.5221 2.29521ZM9.15097 12.7912V4.3267L16.3243 8.55897L9.15097 12.7912Z" fill="#666666"/>
</svg>
