<svg width="304" height="187" viewBox="0 0 304 187" fill="none" xmlns="http://www.w3.org/2000/svg">
<path d="M103.789 185.4C105.557 185.4 106.991 183.966 106.991 182.198C106.991 180.43 105.557 178.996 103.789 178.996C102.021 178.996 100.587 180.43 100.587 182.198C100.587 183.966 102.021 185.4 103.789 185.4Z" stroke="#C4C4C4" stroke-width="3" stroke-miterlimit="10" stroke-linejoin="round"/>
<path d="M5.20176 89.5461C6.97005 89.5461 8.40353 88.1126 8.40353 86.3444C8.40353 84.5761 6.97005 83.1426 5.20176 83.1426C3.43348 83.1426 2 84.5761 2 86.3444C2 88.1126 3.43348 89.5461 5.20176 89.5461Z" stroke="#FF9434" stroke-width="3" stroke-miterlimit="10" stroke-linejoin="round"/>
<path d="M116.091 112.795H105.691V126.195H86.3914V112.795H49.3914V99.8953L80.7914 56.1953H101.291L72.7914 97.0953H86.9914V85.1953H105.691V97.0953H116.091V112.795ZM151.011 127.595C145.011 127.595 139.678 126.162 135.011 123.295C130.344 120.429 126.678 116.262 124.011 110.795C121.411 105.262 120.111 98.7286 120.111 91.1953C120.111 83.662 121.411 77.162 124.011 71.6953C126.678 66.162 130.344 61.962 135.011 59.0953C139.678 56.2286 145.011 54.7953 151.011 54.7953C156.944 54.7953 162.244 56.2286 166.911 59.0953C171.578 61.962 175.211 66.162 177.811 71.6953C180.478 77.162 181.811 83.662 181.811 91.1953C181.811 98.7286 180.478 105.262 177.811 110.795C175.211 116.262 171.578 120.429 166.911 123.295C162.244 126.162 156.944 127.595 151.011 127.595ZM151.011 111.395C154.344 111.395 156.978 109.795 158.911 106.595C160.911 103.329 161.911 98.1953 161.911 91.1953C161.911 84.1953 160.911 79.0953 158.911 75.8953C156.978 72.6286 154.344 70.9953 151.011 70.9953C147.611 70.9953 144.911 72.6286 142.911 75.8953C140.978 79.0953 140.011 84.1953 140.011 91.1953C140.011 98.1953 140.978 103.329 142.911 106.595C144.911 109.795 147.611 111.395 151.011 111.395ZM254.568 112.795H244.168V126.195H224.868V112.795H187.868V99.8953L219.268 56.1953H239.768L211.268 97.0953H225.468V85.1953H244.168V97.0953H254.568V112.795Z" fill="url(#paint0_linear)"/>
<path d="M257.474 22.3104L209.874 21.9102C207.114 21.9102 204.488 23.1775 202.873 25.4454L178.097 59.6643C178.097 59.6643 180.098 61.5987 181.765 65.2674" stroke="#FF9434" stroke-width="3" stroke-miterlimit="10" stroke-linejoin="round"/>
<path d="M172.094 54.5939L197.641 19.9748C198.842 18.3072 199.509 16.3061 199.509 14.305V7.43457" stroke="#C4C4C4" stroke-width="3" stroke-miterlimit="10" stroke-linejoin="round" stroke-dasharray="5 5"/>
<path d="M121.733 59.9298C121.733 59.9298 126.402 54.26 130.338 52.1255C121.799 41.3196 114.662 32.0478 111.861 28.3124C111.06 27.2452 109.726 26.5781 108.392 26.5781H89.6484" stroke="#FF9434" stroke-width="3" stroke-miterlimit="10" stroke-linejoin="round"/>
<path d="M270.415 108.558H279.754C281.755 108.558 283.756 109.158 285.423 110.292L296.896 118.096" stroke="#FF9434" stroke-width="3" stroke-miterlimit="10" stroke-linejoin="round"/>
<path d="M184.501 28.3135L168.292 51.2595C168.292 51.2595 161.754 46.5905 149.414 46.5905" stroke="#C4C4C4" stroke-width="3" stroke-miterlimit="10" stroke-linejoin="round"/>
<path d="M92.0498 30.3809H106.325C107.526 30.3809 108.593 30.9145 109.327 31.8483L116.064 40.4531" stroke="#C4C4C4" stroke-width="3" stroke-miterlimit="10" stroke-linejoin="round"/>
<path d="M199.776 8.30196C201.544 8.30196 202.978 6.86848 202.978 5.10019C202.978 3.33191 201.544 1.89844 199.776 1.89844C198.008 1.89844 196.574 3.33191 196.574 5.10019C196.574 6.86848 198.008 8.30196 199.776 8.30196Z" stroke="#C4C4C4" stroke-width="3" stroke-miterlimit="10" stroke-linejoin="round"/>
<path d="M86.7804 31.5149C88.5487 31.5149 89.9821 30.0814 89.9821 28.3131C89.9821 26.5448 88.5487 25.1113 86.7804 25.1113C85.0121 25.1113 83.5786 26.5448 83.5786 28.3131C83.5786 30.0814 85.0121 31.5149 86.7804 31.5149Z" stroke="#FF9B41" stroke-width="3" stroke-miterlimit="10" stroke-linejoin="round"/>
<path d="M176.429 123.966C176.429 123.966 172.427 128.635 167.424 130.636C175.962 141.442 183.099 150.714 185.901 154.449C186.701 155.517 188.035 156.184 189.369 156.184H224.589" stroke="#FF9434" stroke-width="3" stroke-miterlimit="10" stroke-linejoin="round"/>
<path d="M222.12 151.715H191.37C190.169 151.715 189.102 151.181 188.368 150.248L180.097 139.441" stroke="#C4C4C4" stroke-width="3" stroke-miterlimit="10" stroke-linejoin="round" stroke-dasharray="5 5"/>
<path d="M227.657 158.986C229.426 158.986 230.859 157.552 230.859 155.784C230.859 154.016 229.426 152.582 227.657 152.582C225.889 152.582 224.456 154.016 224.456 155.784C224.456 157.552 225.889 158.986 227.657 158.986Z" stroke="#FF9434" stroke-width="3" stroke-miterlimit="10" stroke-linejoin="round"/>
<path d="M260.609 25.511C262.377 25.511 263.811 24.0775 263.811 22.3092C263.811 20.5409 262.377 19.1074 260.609 19.1074C258.841 19.1074 257.407 20.5409 257.407 22.3092C257.407 24.0775 258.841 25.511 260.609 25.511Z" stroke="#FF9434" stroke-width="3" stroke-miterlimit="10" stroke-linejoin="round"/>
<path d="M45.3569 161.653L92.5163 162.053C95.2511 162.053 97.8525 160.786 99.4534 158.518L124 124.299C124 124.299 122.066 121.965 119.731 118.963" stroke="#FF9434" stroke-width="3" stroke-miterlimit="10" stroke-linejoin="round" stroke-dasharray="5 5"/>
<path d="M130.738 128.635L105.924 162.653C104.724 164.321 104.057 166.322 104.057 168.323V175.193" stroke="#C4C4C4" stroke-width="3" stroke-miterlimit="10" stroke-linejoin="round"/>
<path d="M118.398 154.316L134.407 131.637C134.407 131.637 141.411 135.639 153.417 134.638" stroke="#FF9434" stroke-width="3" stroke-miterlimit="10" stroke-linejoin="round"/>
<path d="M42.8898 164.855C44.658 164.855 46.0915 163.421 46.0915 161.653C46.0915 159.885 44.658 158.451 42.8898 158.451C41.1215 158.451 39.688 159.885 39.688 161.653C39.688 163.421 41.1215 164.855 42.8898 164.855Z" stroke="#FF9434" stroke-width="3" stroke-miterlimit="10" stroke-linejoin="round"/>
<path d="M298.897 123.099C300.665 123.099 302.099 121.665 302.099 119.897C302.099 118.129 300.665 116.695 298.897 116.695C297.129 116.695 295.695 118.129 295.695 119.897C295.695 121.665 297.129 123.099 298.897 123.099Z" stroke="#FF9434" stroke-width="3" stroke-miterlimit="10" stroke-linejoin="round"/>
<path d="M270.415 104.688H280.421" stroke="#C4C4C4" stroke-width="3" stroke-miterlimit="10" stroke-linejoin="round"/>
<path d="M34.1502 97.8843H24.8117C22.8106 97.8843 20.8095 97.2839 19.1419 96.15L7.66895 88.3457" stroke="#FF9434" stroke-width="3" stroke-miterlimit="10" stroke-linejoin="round"/>
<path d="M34.1515 101.819H24.146" stroke="#C4C4C4" stroke-width="3" stroke-miterlimit="10" stroke-linejoin="round"/>
<defs>
<linearGradient id="paint0_linear" x1="46.6914" y1="67.5801" x2="260.986" y2="126.087" gradientUnits="userSpaceOnUse">
<stop stop-color="#216628"/>
<stop offset="1" stop-color="#3FA44A"/>
</linearGradient>
</defs>
</svg>
