<svg width="120" height="120" viewBox="0 0 120 120" fill="none" xmlns="http://www.w3.org/2000/svg">
<g opacity="0.1">
<path d="M119.998 116H0V120H119.998V116Z" fill="#216628"/>
<path d="M115.789 17.1074L107.789 1.10762C107.296 0.119136 106.095 -0.282358 105.107 0.210885C105.106 0.211135 105.106 0.211385 105.105 0.211635L89.1053 8.21151C88.1168 8.70526 87.7156 9.90699 88.2093 10.8955C88.7031 11.884 89.9048 12.2852 90.8933 11.7915L102.481 6.00155L99.3192 15.0294C85.4211 54.6108 49.6244 82.3794 7.83057 86.0003L8.17056 90.0003C51.5391 86.2433 88.6828 57.4245 103.097 16.3494L106.325 7.12553L112.209 18.8953C112.703 19.8838 113.904 20.2851 114.893 19.7913C115.882 19.2976 116.283 18.0961 115.789 17.1074Z" fill="#216628"/>
<path d="M23.9988 95.9998H9.99899C8.89451 95.9998 7.99902 96.8952 7.99902 97.9997V110C7.99902 111.104 8.89451 112 9.99899 112H23.9988C25.1033 112 25.9987 111.104 25.9987 110V97.9997C25.9987 96.8952 25.1033 95.9998 23.9988 95.9998ZM21.9988 108H11.999V99.9997H21.9988V108Z" fill="#216628"/>
<path d="M45.9998 89.9998H32C30.8955 89.9998 30 90.8952 30 91.9997V109.999C30 111.104 30.8955 111.999 32 111.999H45.9998C47.1042 111.999 47.9997 111.104 47.9997 109.999V91.9997C47.9997 90.8952 47.1042 89.9998 45.9998 89.9998ZM43.9998 107.999H33.9999V93.9997H43.9998V107.999Z" fill="#216628"/>
<path d="M67.9978 80.0002H53.998C52.8935 80.0002 51.998 80.8957 51.998 82.0002V110C51.998 111.104 52.8935 112 53.998 112H67.9978C69.1023 112 69.9977 111.104 69.9977 110V82.0002C69.9977 80.8957 69.1023 80.0002 67.9978 80.0002ZM65.9978 108H55.998V84.0001H65.9978V108Z" fill="#216628"/>
<path d="M89.9988 66.001H75.999C74.8945 66.001 73.999 66.8965 73.999 68.0009V110C73.999 111.105 74.8945 112 75.999 112H89.9988C91.1033 112 91.9987 111.105 91.9987 110V68.0009C91.9987 66.8965 91.1033 66.001 89.9988 66.001ZM87.9988 108H77.999V70.0009H87.9988V108Z" fill="#216628"/>
<path d="M111.997 38.0015H97.9975C96.893 38.0015 95.9976 38.897 95.9976 40.0014V110C95.9976 111.105 96.893 112 97.9975 112H111.997C113.102 112 113.997 111.105 113.997 110V40.0014C113.997 38.897 113.102 38.0015 111.997 38.0015ZM109.997 108H99.9975V42.0014H109.997V108Z" fill="#216628"/>
</g>
</svg>
