<svg width="200" height="200" viewBox="0 0 200 200" fill="none" xmlns="http://www.w3.org/2000/svg">
<path d="M180.054 115.625H156.248V97.525L148.013 95.5875C146.973 91.9625 145.529 88.475 143.698 85.175L148.151 77.9813L141.048 70.8781L157.679 50.0875C160.932 52.0031 164.707 53.125 168.748 53.125C180.81 53.125 190.623 43.3125 190.623 31.25C190.623 19.1875 180.81 9.375 168.748 9.375C158.232 9.375 149.432 16.8344 147.348 26.7375L93.6601 23.275C92.7758 12.0188 83.3508 3.125 71.8726 3.125C59.8101 3.125 49.9977 12.9375 49.9977 25C49.9977 37.0625 59.8101 46.875 71.8726 46.875C82.3883 46.875 91.1883 39.4156 93.2726 29.5125L146.96 32.975C147.36 38.0656 149.507 42.6594 152.804 46.1781L136.604 66.4312L131.395 61.2219L124.201 65.675C120.901 63.8438 117.413 62.3969 113.788 61.3563L111.848 53.125H88.1476L86.2101 61.3563C82.5851 62.3969 79.0976 63.8406 75.7976 65.675L68.6039 61.2219L51.8445 77.9813L56.2976 85.175C54.4664 88.475 53.0195 91.9625 51.9789 95.5875L43.7477 97.525V115.625H19.9414L4.31641 146.875H18.7477V196.875H181.248V146.875H195.679L180.054 115.625ZM168.748 15.625C177.363 15.625 184.373 22.6344 184.373 31.25C184.373 39.8656 177.363 46.875 168.748 46.875C160.132 46.875 153.123 39.8656 153.123 31.25C153.123 22.6344 160.132 15.625 168.748 15.625ZM71.8726 40.625C63.257 40.625 56.2477 33.6156 56.2477 25C56.2477 16.3844 63.257 9.375 71.8726 9.375C80.4883 9.375 87.4976 16.3844 87.4976 25C87.4976 33.6156 80.4883 40.625 71.8726 40.625ZM185.566 140.625H120.679L111.304 121.875H176.191L185.566 140.625ZM89.207 115.625C88.1039 113.731 87.4976 111.603 87.4976 109.375C87.4976 102.481 93.1039 96.875 99.9976 96.875C106.891 96.875 112.498 102.481 112.498 109.375C112.498 111.606 111.891 113.728 110.791 115.625H89.207ZM69.4476 115.625C69.032 113.572 68.7477 111.488 68.7477 109.375C68.7477 92.1438 82.7664 78.125 99.9976 78.125C117.229 78.125 131.248 92.1438 131.248 109.375C131.248 111.491 130.963 113.572 130.548 115.625H117.66C118.363 113.637 118.748 111.537 118.748 109.375C118.748 99.0344 110.338 90.625 99.9976 90.625C89.657 90.625 81.2476 99.0344 81.2476 109.375C81.2476 111.537 81.632 113.637 82.3383 115.625H69.4476ZM49.9977 102.475L57.0976 100.803L57.5539 98.9437C58.607 94.6438 60.3102 90.5406 62.6133 86.7438L63.607 85.1062L59.7664 78.9L69.5258 69.1406L75.732 72.9812L77.3695 71.9875C81.1633 69.6844 85.2695 67.9844 89.5695 66.9281L91.4289 66.4719L93.0976 59.375H106.898L108.57 66.475L110.429 66.9312C114.729 67.9844 118.832 69.6875 122.629 71.9906L124.266 72.9844L130.473 69.1437L140.232 78.9031L136.391 85.1094L137.385 86.7469C139.685 90.5375 141.388 94.6438 142.445 98.9469L142.901 100.806L149.998 102.475V115.625H136.957C137.301 113.566 137.498 111.478 137.498 109.375C137.498 88.6969 120.676 71.875 99.9976 71.875C79.3195 71.875 62.4976 88.6969 62.4976 109.375C62.4976 111.478 62.6945 113.566 63.0383 115.625H49.9977V102.475ZM23.8039 121.875H94.9414L85.5664 140.625H14.4289L23.8039 121.875ZM24.9977 146.875H89.4289L99.9976 125.738V190.625H24.9977V146.875ZM174.998 190.625H106.248V125.738L116.816 146.875H174.998V190.625Z" fill="#216628" fill-opacity="0.2"/>
<path d="M168.75 40.625C173.919 40.625 178.125 36.4187 178.125 31.25C178.125 26.0812 173.919 21.875 168.75 21.875C163.581 21.875 159.375 26.0812 159.375 31.25C159.375 36.4187 163.581 40.625 168.75 40.625ZM168.75 28.125C170.472 28.125 171.875 29.5281 171.875 31.25C171.875 32.9719 170.472 34.375 168.75 34.375C167.028 34.375 165.625 32.9719 165.625 31.25C165.625 29.5281 167.028 28.125 168.75 28.125Z" fill="#216628" fill-opacity="0.2"/>
<path d="M71.875 15.625C66.7062 15.625 62.5 19.8312 62.5 25C62.5 30.1687 66.7062 34.375 71.875 34.375C77.0437 34.375 81.25 30.1687 81.25 25C81.25 19.8312 77.0437 15.625 71.875 15.625ZM71.875 28.125C70.1531 28.125 68.75 26.7219 68.75 25C68.75 23.2781 70.1531 21.875 71.875 21.875C73.5969 21.875 75 23.2781 75 25C75 26.7219 73.5969 28.125 71.875 28.125Z" fill="#216628" fill-opacity="0.2"/>
<path d="M18.75 78.125H46.875V62.5C46.875 53.8844 39.8656 46.875 31.25 46.875H18.75C10.1344 46.875 3.125 53.8844 3.125 62.5C3.125 71.1156 10.1344 78.125 18.75 78.125ZM18.75 53.125H31.25C36.4188 53.125 40.625 57.3313 40.625 62.5V71.875H18.75C13.5813 71.875 9.375 67.6688 9.375 62.5C9.375 57.3313 13.5813 53.125 18.75 53.125Z" fill="#216628" fill-opacity="0.2"/>
<path d="M15.625 59.375H21.875V65.625H15.625V59.375Z" fill="#216628" fill-opacity="0.2"/>
<path d="M28.125 59.375H34.375V65.625H28.125V59.375Z" fill="#216628" fill-opacity="0.2"/>
<path d="M168.75 59.375C160.134 59.375 153.125 66.3844 153.125 75V90.625H181.25C189.866 90.625 196.875 83.6156 196.875 75C196.875 66.3844 189.866 59.375 181.25 59.375H168.75ZM190.625 75C190.625 80.1688 186.419 84.375 181.25 84.375H159.375V75C159.375 69.8313 163.581 65.625 168.75 65.625H181.25C186.419 65.625 190.625 69.8313 190.625 75Z" fill="#216628" fill-opacity="0.2"/>
<path d="M178.125 71.875H184.375V78.125H178.125V71.875Z" fill="#216628" fill-opacity="0.2"/>
<path d="M165.625 71.875H171.875V78.125H165.625V71.875Z" fill="#216628" fill-opacity="0.2"/>
<path d="M31.25 153.125V184.375H93.75V153.125H31.25ZM87.5 178.125H37.5V159.375H87.5V178.125Z" fill="#216628" fill-opacity="0.2"/>
<path d="M75 165.625H81.25V171.875H75V165.625Z" fill="#216628" fill-opacity="0.2"/>
<path d="M62.5 165.625H68.75V171.875H62.5V165.625Z" fill="#216628" fill-opacity="0.2"/>
<path d="M50 165.625H56.25V171.875H50V165.625Z" fill="#216628" fill-opacity="0.2"/>
<path d="M162.5 178.125H168.75V184.375H162.5V178.125Z" fill="#216628" fill-opacity="0.2"/>
<path d="M150 178.125H156.25V184.375H150V178.125Z" fill="#216628" fill-opacity="0.2"/>
<path d="M137.5 178.125H143.75V184.375H137.5V178.125Z" fill="#216628" fill-opacity="0.2"/>
<path d="M137.5 165.625H168.75V171.875H137.5V165.625Z" fill="#216628" fill-opacity="0.2"/>
</svg>
