<svg width="10" height="20" viewBox="0 0 10 20" fill="none" xmlns="http://www.w3.org/2000/svg">
<path d="M3.82812 20C1.88961 20 0.3125 18.4229 0.3125 16.4844V4.6875C0.3125 2.10281 2.41531 0 5 0C7.58469 0 9.6875 2.10281 9.6875 4.6875V16.4844H8.51562V4.6875C8.51562 2.74898 6.93852 1.17188 5 1.17188C3.06148 1.17188 1.48438 2.74898 1.48438 4.6875V16.4844C1.48438 17.7767 2.53578 18.8281 3.82812 18.8281C5.12047 18.8281 6.17188 17.7767 6.17188 16.4844V7.03125C6.17188 6.38508 5.64617 5.85938 5 5.85938C4.35383 5.85938 3.82812 6.38508 3.82812 7.03125V16.4844H2.65625V7.03125C2.65625 5.73891 3.70766 4.6875 5 4.6875C6.29234 4.6875 7.34375 5.73891 7.34375 7.03125V16.4844C7.34375 18.4229 5.76664 20 3.82812 20Z" fill="#F8710F"/>
</svg>
