<svg width="98" height="220" viewBox="0 0 98 220" xmlns="http://www.w3.org/2000/svg">
<path d="M84.2144 190.183H76.5217L68.8291 161.374H63.3632V160.366V154.121H61.3389C61.3389 139.615 61.3389 116.85 61.3389 116.85H61.5413H61.9462L63.5657 116.447L63.3632 110L64.173 109.799L66.1974 109.396C66.1974 109.396 65.7925 91.4652 65.7925 89.0476C65.7925 88.4432 65.9949 88.2418 65.9949 87.8388C65.9949 87.6374 66.1974 87.6374 66.1974 87.4359C66.8047 86.63 67.8169 86.4286 67.8169 86.4286C67.8169 86.4286 67.2096 78.7729 67.8169 76.9597C68.0193 76.5568 68.0193 76.3553 68.0193 76.1538V75.9524C68.0193 75.7509 68.0193 75.7509 68.0193 75.5495C68.0193 75.348 68.0193 75.348 68.0193 75.348V75.1465C68.0193 75.1465 68.0193 75.1465 68.0193 74.9451L69.0315 72.7289L67.8169 69.9084L69.0315 69.5055H69.234L68.6266 67.4908C68.6266 67.4908 71.0559 64.8718 71.6632 63.8645C72.2705 62.8571 73.6876 56.8132 73.6876 56.8132C82.3925 53.9927 79.5583 33.4432 79.5583 33.4432C79.5583 33.4432 77.9388 31.8315 71.0559 31.8315C70.2461 31.8315 69.4364 31.8315 68.6266 32.033C68.4242 32.033 68.4242 32.033 68.2218 32.033C67.6144 32.033 67.0071 32.2344 66.6023 32.2344C63.1608 32.8388 61.7437 34.2491 61.7437 34.2491C61.7437 34.2491 61.9462 39.8901 62.1486 47.1429C62.3511 54.1941 66.8047 57.8205 66.8047 57.8205L66.1974 61.044C66.1974 61.044 66.1974 61.044 65.9949 61.044C65.7925 61.044 65.7925 61.2454 65.5901 61.2454C65.3876 61.2454 65.3876 61.4469 65.1852 61.4469C64.9827 61.6483 64.7803 61.6484 64.5779 61.8498C64.3754 62.0513 64.173 62.0513 63.9706 62.2527C63.9706 62.2527 63.9706 62.2527 63.7681 62.2527C63.7681 62.2527 63.7681 62.2527 63.5657 62.2527C63.3632 62.4542 63.1608 62.6557 62.9584 62.6557C62.5535 63.0586 57.8974 64.4689 57.8974 64.4689L57.0877 65.4762C57.0877 65.4762 53.4438 66.2821 53.4438 66.8865C53.4438 67.0879 52.8364 67.0879 52.0267 67.0879C51.8242 67.0879 51.6218 67.0879 51.4194 67.0879C51.2169 67.0879 51.0145 67.0879 50.8121 67.0879C50.6096 67.0879 50.4072 67.0879 50.4072 67.0879H50.2047V62.8571C50.2047 62.8571 49.7999 62.2527 49.7999 61.6484V61.4469C49.7999 61.2454 50.0023 61.044 50.0023 60.8425C50.4072 60.4396 50.8121 59.8352 51.2169 59.2308C51.4194 58.8278 51.8242 58.4249 51.8242 58.022C52.0267 57.8205 52.0267 57.619 52.0267 57.619C52.0267 57.619 52.4316 50.7692 46.3584 50.7692C45.5487 50.7692 44.9413 50.9707 44.334 51.1722C44.1316 51.1722 44.1316 51.3736 43.9291 51.3736C43.5243 51.5751 43.1194 51.7766 42.917 51.978C42.7145 52.1795 42.7145 52.1795 42.7145 52.381C42.5121 52.5824 42.3096 52.9853 42.1072 53.1868C42.1072 53.3883 41.9048 53.5897 41.9048 53.5897C41.7023 53.9927 41.7023 54.1941 41.4999 54.5971C41.4999 54.7985 41.4999 55 41.4999 55.2015C41.4999 55.4029 41.2974 55.8059 41.2974 56.0073C41.2974 56.2088 41.2974 56.4103 41.2974 56.6117C41.2974 56.8132 41.2974 57.0147 41.2974 57.2161C41.2974 57.4176 41.2974 57.619 41.4999 57.8205C41.4999 58.022 41.4999 58.022 41.4999 58.2234C41.4999 58.4249 41.7023 58.4249 41.7023 58.6264V58.8278C42.1072 59.0293 42.3096 60.0366 42.5121 61.044C42.7145 62.4542 42.917 63.8645 42.7145 65.2747V66.8865V67.2894H42.5121H42.1072H41.7023C41.7023 67.2894 41.7023 67.2894 41.7023 67.0879C41.4999 66.8864 40.6901 65.6777 39.6779 65.4762C38.4633 65.0733 36.8438 63.0586 36.8438 63.0586C36.6414 63.0586 36.4389 62.8571 36.034 62.8571C36.034 62.8571 35.8316 62.8571 35.8316 62.6557C34.0097 61.6484 31.7828 58.8278 31.7828 58.8278C31.7828 58.8278 30.5682 58.6264 30.5682 57.0147C30.5682 56.6117 30.3658 56.0073 30.1633 55.4029C30.1633 55.2015 29.9609 55 29.9609 54.7985C29.7585 54.3956 29.556 53.7912 29.3536 53.3883C29.3536 53.1868 29.1511 52.9853 29.1511 52.7839C28.7463 52.1795 28.5438 51.5751 28.1389 50.9707C28.1389 50.7692 27.9365 50.7692 27.9365 50.5678C27.7341 50.1648 27.5316 49.9634 27.3292 49.5604C27.1268 49.359 27.1268 49.1575 26.9243 49.1575C25.5072 47.7473 21.8634 41.9048 21.8634 41.9048C22.2682 41.5018 22.2682 40.8974 22.2682 40.293C22.2682 40.0916 22.2682 39.8901 22.2682 39.6886C22.2682 39.2857 22.2682 39.0843 22.0658 38.6813C22.0658 38.4799 21.8634 38.2784 21.8634 38.0769C21.8634 37.8755 21.6609 37.4725 21.6609 37.4725C21.4585 37.2711 21.4585 37.0696 21.4585 37.0696C21.4585 37.0696 21.4585 37.0696 21.4585 36.8681C24.6975 37.2711 23.6853 35.2564 23.6853 35.2564H22.0658L20.8512 34.2491V2.41758L18.4219 0L16.1951 2.21612V33.8462V34.0476L13.7658 35.4579V36.4652V37.2711H14.778H16.1951C16.1951 37.2711 16.1951 37.4725 15.9926 37.4725C15.3853 37.4725 14.778 37.4725 14.778 37.4725C14.778 37.4725 15.1829 37.4725 15.7902 37.674C15.5878 37.8755 15.5878 38.2784 15.3853 38.6813C15.1829 39.4872 15.1829 40.293 15.3853 40.8974V41.0989C15.3853 41.0989 15.3853 41.0989 15.3853 41.3004V41.5018C15.7902 41.9048 15.9926 42.3077 16.1951 42.3077C16.3975 42.3077 16.6 42.5092 16.8024 42.7106L17.0048 42.9121C17.0048 42.9121 17.0048 42.9121 17.0048 43.1136C17.2073 43.315 17.2073 43.5165 17.4097 43.7179C17.4097 43.9194 17.6121 43.9194 17.6121 44.1209C17.6121 44.1209 17.6121 44.3223 17.8146 44.3223C18.017 44.5238 18.017 44.7253 18.2195 45.1282C18.2195 45.1282 18.2195 45.3297 18.4219 45.3297C18.4219 45.5311 18.6243 45.5311 18.6243 45.7326C18.8268 46.1355 19.0292 46.337 19.0292 46.7399C19.2317 47.1429 19.2317 47.3443 19.4341 47.7473C19.839 48.956 20.4463 50.3663 20.6487 51.3736C20.6487 51.5751 20.8512 51.978 20.8512 52.381C20.8512 52.381 20.8512 52.5824 21.0536 52.5824C21.0536 52.7839 21.256 52.7839 21.256 52.9853V53.1868C21.4585 53.3883 21.4585 53.7912 21.6609 54.1941C22.0658 55 22.4707 55.8059 22.8755 56.4103C22.8755 56.6117 23.078 56.6117 23.078 56.8132C24.0902 58.4249 24.8999 59.6337 25.5072 60.4396C25.5072 60.641 25.5072 60.641 25.7097 60.641C25.9121 60.8425 26.1146 61.044 26.1146 61.044C26.1146 63.4615 29.1511 66.0806 29.1511 66.0806C29.1511 66.0806 29.1511 66.2821 29.1511 66.4835C29.1511 66.8864 28.9487 67.2894 28.9487 67.8938C28.9487 68.0952 28.9487 68.2967 28.9487 68.4982C28.7463 69.1026 28.7463 69.9084 28.5438 70.5128C28.5438 70.7143 28.5438 70.9157 28.5438 71.1172C28.5438 71.3187 28.5438 71.3187 28.5438 71.5201V71.7216V71.9231C28.5438 72.1245 28.7463 72.326 28.7463 72.5275C28.7463 72.7289 28.7463 72.7289 28.9487 72.9304C28.9487 73.1319 29.1511 73.3333 29.1511 73.3333V73.5348C29.3536 73.7363 29.3536 73.7363 29.3536 73.7363C29.3536 74.1392 29.3536 74.5421 29.3536 74.9451C29.3536 75.1465 29.3536 75.1465 29.556 75.348C29.556 75.5495 29.7585 75.7509 29.9609 75.9524C29.9609 76.1538 30.1633 76.1538 30.1633 76.1538C30.3658 76.3553 30.3658 76.3553 30.5682 76.5568L30.7706 76.7582C30.7706 76.7582 30.7706 78.1685 30.7706 79.5788C30.7706 79.7802 30.7706 79.9817 30.9731 80.1832C30.9731 80.3846 31.1755 80.5861 31.1755 80.989C31.378 81.3919 31.5804 81.7949 31.7828 82.1978C31.9853 82.3993 31.9853 82.6007 32.1877 83.0037V83.2051C32.5926 84.011 32.5926 86.4286 32.5926 88.2418C32.5926 88.4432 32.5926 88.6447 32.5926 88.8462C32.5926 89.0476 32.5926 89.0476 32.5926 89.2491C32.5926 90.0549 32.5926 90.6593 32.5926 90.6593C32.5926 90.6593 35.4267 90.8608 34.617 93.4799C33.8072 96.0989 35.2243 109.396 35.0219 114.231C35.0219 114.835 35.0219 115.44 35.0219 115.842C35.0219 116.85 35.2243 117.454 35.4267 117.857C35.6292 118.059 35.6292 118.059 35.8316 118.059C36.034 118.059 36.2365 118.059 36.2365 118.059C36.2365 130.952 38.4633 153.919 38.4633 153.919H34.4145V160.165V161.172H28.9487L21.6609 188.974L21.4585 189.982H13.3609L0 220H13.9683H27.9365H41.9048H55.873H69.8413H83.8095H97.7778L84.2144 190.183Z" fill="#216628"/>
</svg>
