<svg width="30" height="30" viewBox="0 0 30 30" fill="none" xmlns="http://www.w3.org/2000/svg">
<path d="M7.92712 5.25C7.20001 5.25 6.53898 5.51442 6.04322 6.01018C5.51442 6.53898 5.25 7.19997 5.25 7.89404C5.25 8.62115 5.54746 9.28218 6.04322 9.77794C6.53898 10.2737 7.23305 10.5712 7.89408 10.5381C7.89408 10.5381 7.92712 10.5381 7.96019 10.5381C8.62122 10.5381 9.24918 10.2737 9.74494 9.77794C10.2407 9.28218 10.5382 8.62115 10.5382 7.89404C10.5712 7.19997 10.2737 6.53894 9.77798 6.04318C9.28221 5.51438 8.62118 5.25 7.92712 5.25ZM9.28221 9.31525C8.91864 9.67882 8.42288 9.91017 7.89408 9.87713C7.39832 9.87713 6.86952 9.67882 6.50594 9.31525C6.10933 8.95168 5.91103 8.42288 5.91103 7.89408C5.91103 7.36528 6.10933 6.86952 6.50594 6.47291C6.86952 6.10933 7.36528 5.91103 7.92712 5.91103C8.42288 5.91103 8.91864 6.10933 9.28221 6.47291C9.67882 6.86952 9.87713 7.36528 9.87713 7.89408C9.87713 8.42288 9.67882 8.95168 9.28221 9.31525Z" fill="white"/>
<path d="M9.21568 11.1992H6.53856C6.00976 11.1992 5.58008 11.6289 5.58008 12.1907V23.7585C5.58008 24.2873 6.0428 24.7501 6.5716 24.7501H9.21568C9.74448 24.7501 10.2072 24.2873 10.2072 23.7916V12.1907C10.2072 11.6619 9.74448 11.1992 9.21568 11.1992ZM9.54618 23.7916C9.54618 23.9569 9.38091 24.089 9.21568 24.089H6.5716C6.40634 24.089 6.24111 23.9238 6.24111 23.7585V12.1907C6.24111 12.0255 6.3733 11.8602 6.53856 11.8602H9.21568C9.38095 11.8602 9.54618 12.0255 9.54618 12.1907V23.7916Z" fill="white"/>
<path d="M20.4534 10.8687H19.7593C18.4704 10.8687 17.2475 11.4305 16.4543 12.3229V11.8602C16.4543 11.5297 16.1238 11.1991 15.7932 11.1991H12.4882C12.1907 11.1991 11.8271 11.4636 11.8271 11.8271V24.155C11.8271 24.5186 12.1907 24.75 12.4882 24.75H16.1238C16.4212 24.75 16.7848 24.5186 16.7848 24.155V17.0161C16.7848 15.9254 17.578 15.0661 18.6026 15.0661C19.1314 15.0661 19.6272 15.2644 19.9907 15.6279C20.3212 15.9254 20.4535 16.3881 20.4535 16.983V24.089C20.4535 24.4195 20.7839 24.75 21.1145 24.75H24.4195C24.75 24.75 25.0806 24.4195 25.0806 24.089V15.5619C25.0805 12.9178 23.0645 10.8687 20.4534 10.8687ZM24.4195 24.0559L24.3865 24.089H21.1475L21.1144 16.9831C21.1144 16.1898 20.9161 15.5949 20.4865 15.1653C19.9907 14.6695 19.3297 14.4051 18.6356 14.4051C17.2475 14.4381 16.1568 15.5619 16.1568 17.0161V24.089H12.5212V11.8602H15.7932L15.8263 11.8932V13.9754L16.7187 13.083L16.7517 13.05C17.4127 12.1246 18.5695 11.5297 19.7924 11.5297H20.4865C22.7008 11.5297 24.4195 13.3144 24.4195 15.5619V24.0559Z" fill="white"/>
<path d="M26.7391 0H3.26087C1.46293 0 0 1.46293 0 3.26087V26.7391C0 28.5371 1.46293 30 3.26087 30H26.7391C28.5371 30 30 28.5371 30 26.7391V3.26087C30 1.46293 28.5371 0 26.7391 0ZM28.6957 26.7391C28.6957 27.8177 27.8177 28.6957 26.7391 28.6957H3.26087C2.1823 28.6957 1.30435 27.8177 1.30435 26.7391V3.26087C1.30435 2.1823 2.1823 1.30435 3.26087 1.30435H26.7391C27.8177 1.30435 28.6957 2.1823 28.6957 3.26087V26.7391Z" fill="white"/>
</svg>
