<svg width="19" height="26" viewBox="0 0 19 26" fill="none" xmlns="http://www.w3.org/2000/svg">
<path d="M9.02243 0C4.04741 0 0 4.048 0 9.02316C0 13.8122 8.18621 25.001 8.53477 25.4748L8.86008 25.9175C8.89812 25.9696 8.9587 26 9.02243 26C9.08715 26 9.14734 25.9696 9.18578 25.9175L9.51088 25.4748C9.85964 25.001 18.0457 13.8122 18.0457 9.02316C18.0457 4.048 13.9976 0 9.02243 0ZM9.02243 5.79108C10.805 5.79108 12.2545 7.24066 12.2545 9.02316C12.2545 10.8047 10.8049 12.2552 9.02243 12.2552C7.24092 12.2552 5.79036 10.8047 5.79036 9.02316C5.79036 7.24066 7.24085 5.79108 9.02243 5.79108Z" fill="#F8710F"/>
</svg>
