<?xml version="1.0" encoding="utf-8"?>
<!-- Generator: Adobe Illustrator 22.0.0, SVG Export Plug-In . SVG Version: 6.00 Build 0)  -->
<svg version="1.1" id="Слой_1" xmlns="http://www.w3.org/2000/svg" xmlns:xlink="http://www.w3.org/1999/xlink" x="0px" y="0px"
	 viewBox="0 0 800 176.7" style="enable-background:new 0 0 800 176.7;" xml:space="preserve">
<style type="text/css">
	.st0{fill-rule:evenodd;clip-rule:evenodd;fill:url(#SVGID_4_);}
	.st1{fill-rule:evenodd;clip-rule:evenodd;fill:url(#SVGID_5_);}
	.st2{fill-rule:evenodd;clip-rule:evenodd;fill:url(#SVGID_6_);}
	.st3{fill-rule:evenodd;clip-rule:evenodd;fill:url(#SVGID_7_);}
	.st4{fill-rule:evenodd;clip-rule:evenodd;fill:url(#SVGID_8_);}
	.st5{fill-rule:evenodd;clip-rule:evenodd;fill:url(#SVGID_9_);}
	.st6{fill-rule:evenodd;clip-rule:evenodd;fill:#FFFFFF;}
	.st7{fill:#FFFFFF;}
</style>
<g>
	<g>
		<g>
			<defs>
				<path id="SVGID_1_" d="M799.9,89.1c1.2,2.7-15.8,11.5-25,17.2c-6,3.7-36,18.7-56.1,8.5c12.3-3.5,21.3-14.9,21.3-28.3
					c0-13.1-8.6-24.2-20.5-28c7-3.9,15.7-5.2,25-1.7C770.7,66.3,798.1,85,799.9,89.1z"/>
			</defs>
			<linearGradient id="SVGID_2_" gradientUnits="userSpaceOnUse" x1="718.871" y1="86.4596" x2="800" y2="86.4596">
				<stop  offset="0" style="stop-color:#E6AD4A"/>
				<stop  offset="1" style="stop-color:#DB8F43"/>
			</linearGradient>
			<use xlink:href="#SVGID_1_"  style="overflow:visible;fill:url(#SVGID_2_);"/>
			<clipPath id="SVGID_3_">
				<use xlink:href="#SVGID_1_"  style="overflow:visible;"/>
			</clipPath>
		</g>
	</g>
	<linearGradient id="SVGID_4_" gradientUnits="userSpaceOnUse" x1="686.5901" y1="34.9176" x2="732.6826" y2="34.9176">
		<stop  offset="0" style="stop-color:#69A351"/>
		<stop  offset="1" style="stop-color:#426735"/>
	</linearGradient>
	<path class="st0" d="M727,0c0,0,2.3,4.7-23.1,37.2c-10.5,13.5-15.9,24.3-17.3,32.7c5.3-7.7,14.2-12.7,24.2-12.7
		c6.8,0,13.1,2.3,18.1,6.2c1.3-3.7,2.2-7.1,2.6-9.6C733.3,43,733.8,12.2,727,0z"/>
	<linearGradient id="SVGID_5_" gradientUnits="userSpaceOnUse" x1="693.1791" y1="45.5647" x2="776.118" y2="45.5647">
		<stop  offset="0" style="stop-color:#E6AD4A"/>
		<stop  offset="0.6462" style="stop-color:#DB8F43"/>
	</linearGradient>
	<path class="st1" d="M776.1,36.9c0,0-35.1-17.8-55.9-3.5c-10.8,7.4-21.8,18.7-27.1,29.6c4.9-3.7,11-5.9,17.6-5.9
		c6.8,0,13,2.3,18,6.1c1.5-1,3-1.8,4.3-2.5C742,56.1,764.7,37.9,776.1,36.9z"/>
	<linearGradient id="SVGID_6_" gradientUnits="userSpaceOnUse" x1="796.2172" y1="73.2067" x2="716.3026" y2="73.2067">
		<stop  offset="0" style="stop-color:#69A351"/>
		<stop  offset="1" style="stop-color:#426735"/>
	</linearGradient>
	<path class="st2" d="M796.2,61.2c-14.4-2.6-27.1-10.5-61.2-8.9c-7.6,0.4-13.7,2.4-18.7,5.3c13.6,2.6,23.9,14.5,23.9,28.9
		c0,2.7-0.4,5.3-1,7.7c1.1-0.7,2.2-1.4,3.3-2.2C766.1,75.3,785.2,62.2,796.2,61.2z"/>
	<linearGradient id="SVGID_7_" gradientUnits="userSpaceOnUse" x1="684.5849" y1="138.6536" x2="731.0491" y2="138.6536">
		<stop  offset="0" style="stop-color:#69A351"/>
		<stop  offset="1" style="stop-color:#426735"/>
	</linearGradient>
	<path class="st3" d="M725.4,176.7c0,0,2.3-4.6-23.1-36.4c-14.3-17.8-19.1-31.1-17.3-39.7c5,9.2,14.7,15.4,25.9,15.4
		c5.6,0,10.9-1.6,15.3-4.3c1.9,4.8,3.2,9.3,3.7,12.4C731.7,134.6,732.2,164.8,725.4,176.7z"/>
	<linearGradient id="SVGID_8_" gradientUnits="userSpaceOnUse" x1="688.48" y1="127.5718" x2="774.4837" y2="127.5718">
		<stop  offset="0" style="stop-color:#E6AD4A"/>
		<stop  offset="0.6205" style="stop-color:#DB8F43"/>
	</linearGradient>
	<path class="st4" d="M774.5,140.6c0,0-35.1,17.4-55.9,3.4c-14-9.4-28.3-25.1-30.1-38.3c5.4,6.3,13.4,10.3,22.3,10.3
		c4.8,0,9.3-1.1,13.3-3.2c2.7,1.8,5.2,3.3,7.3,4.4C740.4,121.8,763,139.6,774.5,140.6z"/>
	<linearGradient id="SVGID_9_" gradientUnits="userSpaceOnUse" x1="794.5836" y1="105.8897" x2="708.7177" y2="105.8897">
		<stop  offset="0" style="stop-color:#69A351"/>
		<stop  offset="1" style="stop-color:#426735"/>
	</linearGradient>
	<path class="st5" d="M794.6,116.8c-14.4,2.5-27.1,10.3-61.2,8.7c-10.9-0.5-18.9-4.4-24.6-9.5c0.7,0,1.4,0.1,2.1,0.1
		c16.2,0,29.4-13.2,29.4-29.4c0-0.1,0-0.3,0-0.4c0.2,0.1,0.4,0.3,0.6,0.4C764.4,103,783.6,115.8,794.6,116.8z"/>
</g>
<path class="st6" d="M1.1,92.8h6.5c1.1,3.5,2.8,6.2,5.3,8.1c2.5,2,5.4,2.9,8.7,2.9c2,0,3.6-0.4,4.9-1.3c1.2-0.9,1.8-2,1.8-3.4
	c0-2.2-2.6-4-7.9-5.4c-1.7-0.5-3.1-0.8-4.1-1.1c-3.2-1-5.6-1.8-7.3-2.4c-1.7-0.7-3-1.3-3.7-1.9c-1.8-1.4-3.1-2.9-4-4.5
	C0.4,82.1,0,80.3,0,78.2c0-4.5,1.7-8.2,5-10.9c3.3-2.8,7.7-4.1,13.2-4.1c2.8,0,5.4,0.3,7.8,0.8c2.4,0.5,4.8,1.4,7,2.5l1.2-2.3h6.4
	v15.6h-7.6c-0.7-3.2-2.1-5.5-4.2-7.1c-2-1.5-4.8-2.3-8.2-2.3c-2,0-3.7,0.5-5,1.4c-1.3,0.9-1.9,2-1.9,3.4c0,2,2.5,3.5,7.5,4.5
	c1.2,0.3,2.2,0.5,2.8,0.6c6.9,1.6,11.8,3.6,14.6,5.9c2.8,2.4,4.2,5.6,4.2,9.7c0,4.5-1.7,8.1-5.1,10.8c-3.4,2.7-8.1,4-13.9,4
	c-2.7,0-5.2-0.3-7.7-0.9c-2.5-0.6-4.9-1.5-7.3-2.7l-1.7,2.5H1.1V92.8L1.1,92.8z M72.7,64.4v6.4h-2.2c-1.6,0-2.6,0.2-3.1,0.6
	c-0.4,0.4-0.7,1.5-0.7,3.2v24.5c0,1.7,0.2,2.8,0.7,3.2c0.5,0.4,1.5,0.6,3.1,0.6h2.2v6.4H46V103h2.2c1.6,0,2.6-0.2,3-0.6
	c0.5-0.4,0.7-1.5,0.7-3.2V74.6c0-1.7-0.2-2.8-0.7-3.2c-0.4-0.4-1.5-0.6-3.1-0.6H46v-6.4H72.7L72.7,64.4z M81.1,99.1V74.6
	c0-1.8-0.2-2.8-0.7-3.2c-0.4-0.4-1.4-0.6-3-0.6h-2.3v-6.3H106c5.5,0,9.5,0.9,12.2,2.8c2.7,1.9,4,4.6,4,8.4c0,2.5-0.8,4.6-2.5,6.4
	c-1.7,1.7-4,2.9-7,3.5c3.1,0.4,5.1,1.3,6.2,2.8c1.1,1.5,1.6,4.9,1.6,10.2c0,1.6,0.1,2.7,0.4,3.3c0.3,0.6,0.7,0.9,1.4,0.9
	c0.6,0,1-0.4,1.3-1.1c0.3-0.8,0.4-1.9,0.4-3.5c0-0.2,0-0.4,0-0.8c0-0.3,0-0.6,0-0.8h4.5c0,0.2,0,0.5,0,0.9c0,0.4,0,0.7,0,0.9
	c0,4.2-0.9,7.2-2.6,9.1c-1.7,1.9-4.5,2.8-8.3,2.8c-4.1,0-7-0.8-8.9-2.5c-1.9-1.7-2.8-4.4-2.8-8.1V96c0-3-0.4-4.9-1.2-5.7
	c-0.8-0.8-2.4-1.2-5-1.2h-4v10c0,1.8,0.2,2.8,0.7,3.2c0.4,0.4,1.4,0.6,3,0.6h2.6v6.4h-27V103h2.3c1.6,0,2.6-0.2,3-0.6
	C80.9,101.9,81.1,100.9,81.1,99.1L81.1,99.1z M95.8,83h3.9c2.8,0,4.7-0.4,5.8-1.3c1.1-0.9,1.7-2.4,1.7-4.4c0-2.3-0.5-3.9-1.6-4.8
	c-1-0.9-2.9-1.4-5.5-1.4h-4.4V83L95.8,83z M156.9,64.4v6.4h-2.2c-1.6,0-2.6,0.2-3.1,0.6c-0.4,0.4-0.7,1.5-0.7,3.2v24.5
	c0,1.7,0.2,2.8,0.7,3.2c0.5,0.4,1.5,0.6,3.1,0.6h2.2v6.4h-26.7V103h2.2c1.6,0,2.6-0.2,3-0.6c0.5-0.4,0.7-1.5,0.7-3.2V74.6
	c0-1.7-0.2-2.8-0.7-3.2c-0.4-0.4-1.5-0.6-3.1-0.6h-2.2v-6.4H156.9L156.9,64.4z M181.5,64.4L198,94.7V74.6c0-1.8-0.2-2.9-0.7-3.3
	c-0.5-0.4-1.5-0.6-3-0.6h-2.5v-6.4h19.7v6.4h-1.6c-1.6,0-2.6,0.2-3,0.6c-0.4,0.4-0.7,1.5-0.7,3.2v34.7h-15.4l-17.5-32.2v22
	c0,1.7,0.2,2.8,0.7,3.2c0.4,0.4,1.5,0.6,3,0.6h2v6.4h-19.8V103h2.2c1.6,0,2.6-0.2,3.1-0.6c0.5-0.4,0.7-1.5,0.7-3.2V74.6
	c0-1.7-0.2-2.8-0.7-3.2c-0.4-0.4-1.5-0.6-3.1-0.6h-2.2v-6.4H181.5z"/>
<path class="st6" d="M237.9,92.8h6.5c1.1,3.5,2.8,6.2,5.3,8.1c2.5,2,5.4,2.9,8.7,2.9c2,0,3.6-0.4,4.9-1.3c1.2-0.9,1.8-2,1.8-3.4
	c0-2.2-2.6-4-7.9-5.4c-1.7-0.5-3.1-0.8-4.1-1.1c-3.2-1-5.6-1.8-7.3-2.4c-1.7-0.7-3-1.3-3.7-1.9c-1.8-1.4-3.1-2.9-4-4.5
	c-0.9-1.6-1.3-3.5-1.3-5.6c0-4.5,1.7-8.2,5-10.9c3.3-2.8,7.7-4.1,13.2-4.1c2.8,0,5.4,0.3,7.8,0.8c2.4,0.5,4.8,1.4,7,2.5l1.2-2.3h6.4
	v15.6H270c-0.7-3.2-2.1-5.5-4.2-7.1c-2-1.5-4.8-2.3-8.2-2.3c-2,0-3.7,0.5-5,1.4c-1.3,0.9-1.9,2-1.9,3.4c0,2,2.5,3.5,7.5,4.5
	c1.2,0.3,2.2,0.5,2.8,0.6c6.9,1.6,11.8,3.6,14.6,5.9c2.8,2.4,4.2,5.6,4.2,9.7c0,4.5-1.7,8.1-5.1,10.8c-3.4,2.7-8.1,4-13.9,4
	c-2.7,0-5.2-0.3-7.7-0.9c-2.5-0.6-4.9-1.5-7.3-2.7l-1.7,2.5h-6.2V92.8L237.9,92.8z M309.7,69.9c-3,0-5.2,1.3-6.6,4
	c-1.4,2.7-2.1,7-2.1,12.9c0,6,0.7,10.4,2.1,13c1.4,2.7,3.6,4,6.6,4c3.1,0,5.3-1.3,6.6-4c1.4-2.7,2.1-6.9,2.1-12.9
	c0-6-0.7-10.3-2.1-13C314.9,71.3,312.7,69.9,309.7,69.9L309.7,69.9z M283.6,86.9c0-7.4,2.3-13.3,6.9-17.5c4.6-4.2,11-6.3,19.1-6.3
	c8.1,0,14.5,2.1,19.1,6.3c4.6,4.2,6.9,10.1,6.9,17.5c0,7.4-2.3,13.2-6.9,17.4c-4.6,4.2-11,6.3-19.2,6.3c-8.1,0-14.4-2.1-19-6.3
	C285.9,100.1,283.6,94.3,283.6,86.9L283.6,86.9z M384.6,64.4v18.4h-7.3c-0.1-2.2-0.4-4-0.7-5.4c-0.3-1.4-0.8-2.6-1.4-3.5
	c-0.8-1.1-1.8-1.9-3-2.4c-1.2-0.5-3.5-0.7-6.9-0.7h-5.8v12.3h1.7c2,0,3.4-0.5,4.3-1.5c0.8-1,1.2-2.7,1.2-5.2V76h5.6v20.5h-5.6
	c-0.1-3.1-0.5-5.2-1.2-6.1c-0.7-0.9-2.1-1.4-4.2-1.4h-1.8v10.1c0,1.9,0.2,3,0.7,3.3c0.5,0.4,1.5,0.5,3,0.5h2.5v6.4h-26.7V103h2.3
	c1.5,0,2.5-0.2,2.9-0.5c0.5-0.3,0.7-1.4,0.7-3v-0.3V74.6c0-1.7-0.2-2.8-0.7-3.2c-0.4-0.4-1.4-0.6-3-0.6h-2.2v-6.4H384.6L384.6,64.4z
	 M401.7,71.5c-2.5,0-4.3,0.8-5.7,2.5c-1.3,1.7-2,4.1-2,7.3v0.2h-6.6v-17h47.2v17h-6.6v-0.2c0-3.2-0.7-5.6-2-7.3
	c-1.3-1.7-3.2-2.5-5.7-2.5h-2v27.7c0,1.7,0.2,2.8,0.7,3.2c0.5,0.4,1.5,0.6,3.1,0.6h3.7v6.4h-29.5V103h3.5c1.5,0,2.5-0.2,3-0.5
	c0.5-0.4,0.7-1.5,0.7-3.3V71.5H401.7L401.7,71.5z M456.7,64.4v6.4c-1,0-1.8,0.1-2.2,0.4c-0.4,0.3-0.6,0.7-0.6,1.3
	c0,0.3,0,0.6,0.1,0.9c0,0.3,0.1,0.6,0.2,0.8l6.4,22.7l5.2-21.2c-0.3-1.9-0.9-3.2-1.6-3.9c-0.8-0.7-2.1-1-3.9-1.1v-6.4h22.1v6.4h-1.5
	c-1.3,0-2.2,0.1-2.7,0.4c-0.4,0.2-0.7,0.7-0.7,1.3c0,0.2,0,0.5,0.1,0.7c0,0.3,0.1,0.6,0.2,1l5.5,22.7l5.7-22.8
	c0.1-0.3,0.1-0.6,0.2-0.9c0-0.3,0.1-0.5,0.1-0.8c0-0.6-0.2-1.1-0.7-1.3c-0.5-0.2-1.5-0.4-3-0.4v-6.4h17.1v6.4c-1.4,0-2.5,0.3-3.2,1
	c-0.7,0.6-1.3,1.8-1.8,3.4l-9.4,34.2h-14.3l-4.4-18.3l-4.5,18.3h-14.4l-9.2-33c-0.6-2-1.3-3.4-2.2-4.2c-0.9-0.8-2-1.3-3.5-1.3v-6.4
	H456.7L456.7,64.4z M523.2,88.5l-4.1-13.6l-3.8,13.6H523.2L523.2,88.5z M521.6,109.3h27.2V103h-2.4c-1.3,0-2.3-0.2-2.8-0.7
	c-0.6-0.5-1.2-1.8-2-4l-10.5-33.8h-16.2l-11.8,33.9c-0.6,1.6-1.2,2.8-2,3.5c-0.8,0.7-1.7,1.1-2.9,1.1h-1.7v6.4h20.1V103h-2.2
	c-1,0-1.8-0.1-2.3-0.3c-0.5-0.2-0.8-0.5-0.8-0.9c0-0.3,0-0.6,0.1-1c0.1-0.4,0.2-0.9,0.5-1.5l1.4-4.3h12.1l1.6,4.8
	c0.1,0.3,0.2,0.6,0.2,0.9c0.1,0.3,0.1,0.6,0.1,1c0,0.5-0.2,0.9-0.6,1.1c-0.4,0.2-1.4,0.3-3.1,0.3h-2V109.3L521.6,109.3z M552.9,99.1
	V74.6c0-1.8-0.2-2.8-0.7-3.2c-0.4-0.4-1.4-0.6-3-0.6h-2.3v-6.3h30.9c5.5,0,9.5,0.9,12.2,2.8c2.7,1.9,4,4.6,4,8.4
	c0,2.5-0.8,4.6-2.5,6.4c-1.7,1.7-4,2.9-7,3.5c3.1,0.4,5.1,1.3,6.2,2.8c1.1,1.5,1.6,4.9,1.6,10.2c0,1.6,0.1,2.7,0.4,3.3
	c0.3,0.6,0.7,0.9,1.4,0.9c0.6,0,1-0.4,1.3-1.1c0.3-0.8,0.4-1.9,0.4-3.5c0-0.2,0-0.4,0-0.8c0-0.3,0-0.6,0-0.8h4.5c0,0.2,0,0.5,0,0.9
	c0,0.4,0,0.7,0,0.9c0,4.2-0.9,7.2-2.6,9.1c-1.7,1.9-4.5,2.8-8.3,2.8c-4.1,0-7-0.8-8.9-2.5c-1.9-1.7-2.8-4.4-2.8-8.1V96
	c0-3-0.4-4.9-1.2-5.7c-0.8-0.8-2.4-1.2-5-1.2h-4v10c0,1.8,0.2,2.8,0.7,3.2c0.4,0.4,1.4,0.6,3,0.6h2.6v6.4h-27V103h2.3
	c1.6,0,2.6-0.2,3-0.6C552.7,101.9,552.9,100.9,552.9,99.1L552.9,99.1z M567.6,83h3.9c2.8,0,4.7-0.4,5.8-1.3c1.1-0.9,1.7-2.4,1.7-4.4
	c0-2.3-0.5-3.9-1.6-4.8c-1-0.9-2.9-1.4-5.5-1.4h-4.4V83L567.6,83z M648.8,64.4v16.7h-7.1c-0.5-2.2-0.9-3.9-1.5-5.1
	c-0.5-1.2-1.1-2.2-1.9-2.9c-0.9-0.9-1.9-1.5-3.1-1.8c-1.2-0.4-3.2-0.5-5.9-0.5H628h-5.8v12.3h1.7c2,0,3.5-0.5,4.3-1.5
	c0.8-1,1.2-2.7,1.2-5.2V76h5.6v20.5h-5.6c-0.1-3.1-0.5-5.2-1.2-6.1c-0.7-0.9-2.1-1.4-4.2-1.4h-1.8v14h8c3.1,0,5.2-0.2,6.4-0.6
	c1.2-0.4,2.1-1,2.7-1.9c0.7-1.1,1.2-2.4,1.6-3.9c0.4-1.5,0.7-3.5,0.8-5.8h7.4v18.5h-47.4V103h2.3c1.5,0,2.5-0.2,2.9-0.5
	c0.5-0.3,0.7-1.4,0.7-3v-0.3V74.6c0-1.7-0.2-2.8-0.7-3.2c-0.4-0.4-1.4-0.6-3-0.6h-2.2v-6.4H648.8z"/>
<path class="st7" d="M697.6,90.4h3.8c0.6,2,1.7,3.6,3.1,4.8c1.5,1.1,3.2,1.7,5.2,1.7c1.2,0,2.2-0.3,2.9-0.8c0.7-0.5,1.1-1.2,1.1-2
	c0-1.3-1.6-2.3-4.7-3.2c-1-0.3-1.8-0.5-2.4-0.7c-1.9-0.6-3.3-1.1-4.3-1.4c-1-0.4-1.7-0.8-2.2-1.1c-1.1-0.8-1.9-1.7-2.4-2.7
	c-0.5-1-0.8-2.1-0.8-3.3c0-2.7,1-4.8,3-6.5c2-1.6,4.6-2.4,7.8-2.4c1.7,0,3.2,0.2,4.6,0.5c1.4,0.3,2.8,0.8,4.2,1.5l0.7-1.3h3.8v9.2
	h-4.5c-0.4-1.9-1.3-3.3-2.5-4.2c-1.2-0.9-2.8-1.4-4.8-1.4c-1.2,0-2.2,0.3-2.9,0.8c-0.8,0.5-1.2,1.2-1.2,2c0,1.2,1.5,2.1,4.4,2.7
	c0.7,0.2,1.3,0.3,1.7,0.4c4.1,0.9,7,2.1,8.6,3.5c1.6,1.4,2.5,3.3,2.5,5.7c0,2.7-1,4.8-3,6.4c-2,1.6-4.8,2.4-8.2,2.4
	c-1.6,0-3.1-0.2-4.6-0.5c-1.4-0.3-2.9-0.9-4.3-1.6l-1,1.5h-3.6V90.4z"/>
</svg>
