<svg width="30" height="23" viewBox="0 0 30 23" fill="none" xmlns="http://www.w3.org/2000/svg">
<path d="M0.625876 1.82555C4.74326 5.31252 11.968 11.4472 14.0914 13.36C14.3765 13.6181 14.6822 13.7494 14.9996 13.7494C15.3164 13.7494 15.6216 13.6194 15.906 13.3624C18.0313 11.4478 25.256 5.31252 29.3734 1.82555C29.6298 1.60887 29.6689 1.22801 29.4613 0.963105C28.9816 0.350976 28.2663 0 27.4996 0H2.49965C1.73306 0 1.01769 0.350977 0.537985 0.963164C0.330446 1.22801 0.369528 1.60887 0.625876 1.82555Z" fill="#F8710F"/>
<path d="M29.6374 3.71549C29.4159 3.61237 29.1553 3.64835 28.9709 3.80585C26.2744 6.09159 22.7216 9.11163 20.0421 11.4163C19.9011 11.5372 19.8218 11.7148 19.8249 11.9009C19.8279 12.0865 19.914 12.2616 20.0592 12.3776C22.5489 14.3716 26.3007 17.1145 29.01 19.064C29.1181 19.1421 29.2462 19.1818 29.375 19.1818C29.4727 19.1818 29.5703 19.1592 29.6601 19.1128C29.8688 19.006 30 18.7911 30 18.5568V4.28251C30 4.03899 29.8583 3.81745 29.6374 3.71549Z" fill="#F8710F"/>
<path d="M0.99 19.0636C3.69996 17.1141 7.45242 14.3712 9.94143 12.3772C10.0867 12.2612 10.1728 12.086 10.1758 11.9005C10.1788 11.7144 10.0995 11.5368 9.95854 11.4159C7.27904 9.11121 3.72557 6.09117 1.02908 3.80543C0.843516 3.64793 0.582305 3.61318 0.362578 3.71508C0.141621 3.81703 0 4.03857 0 4.28209V18.5564C0 18.7908 0.13125 19.0056 0.339961 19.1125C0.429668 19.1589 0.527344 19.1814 0.62502 19.1814C0.753809 19.1814 0.881953 19.1418 0.99 19.0636Z" fill="#F8710F"/>
<path d="M29.2343 20.7644C26.6177 18.8925 21.7977 15.4025 18.9205 13.0672C18.6862 12.8762 18.3468 12.8823 18.1161 13.0813C17.5516 13.5738 17.0791 13.9889 16.744 14.2904C15.7149 15.2193 14.2867 15.2193 13.2552 14.2892C12.9214 13.9883 12.449 13.572 11.8844 13.0812C11.6555 12.881 11.3155 12.8749 11.0805 13.0672C8.21306 15.3945 3.38763 18.8887 0.766794 20.7644C0.620895 20.8694 0.526911 21.0311 0.50863 21.2099C0.490934 21.3887 0.550114 21.5663 0.672809 21.6982C1.1459 22.2079 1.8124 22.5003 2.50029 22.5003H27.5003C28.1882 22.5003 28.8541 22.2079 29.3283 21.6982C29.4504 21.567 29.5102 21.3894 29.4925 21.2105C29.4742 21.0318 29.3802 20.8694 29.2343 20.7644Z" fill="#F8710F"/>
</svg>
