<svg width="19" height="30" viewBox="0 0 19 30" fill="none" xmlns="http://www.w3.org/2000/svg">
<rect x="1" y="1" width="16.1818" height="28" rx="2" stroke="#F8710F" stroke-width="2" stroke-linecap="square" stroke-linejoin="round"/>
<rect x="1.66669" y="0.833313" width="15" height="3.33333" fill="#F8710F"/>
<rect x="1.66669" y="25.8333" width="15" height="3.33333" fill="#F8710F"/>
<path d="M10.747 27.1973H7.96713C7.58332 27.1973 7.27216 27.5084 7.27216 27.8922C7.27216 28.276 7.58332 28.5872 7.96713 28.5872H10.747C11.1308 28.5872 11.442 28.276 11.442 27.8922C11.442 27.5084 11.1308 27.1973 10.747 27.1973Z" fill="#F2F2F2"/>
<path d="M7.34851 3.25737C7.72506 3.25737 8.03032 2.95211 8.03032 2.57556C8.03032 2.199 7.72506 1.89374 7.34851 1.89374C6.97195 1.89374 6.66669 2.199 6.66669 2.57556C6.66669 2.95211 6.97195 3.25737 7.34851 3.25737Z" fill="#F2F2F2"/>
<rect x="8.80438" y="1.89392" width="3.40909" height="1.36364" rx="0.681818" fill="#F2F2F2"/>
</svg>
