<svg width="120" height="108" viewBox="0 0 120 108" fill="none" xmlns="http://www.w3.org/2000/svg">
<path d="M106 16H97.07L89.928 5.286C89.573 2.27848 87.0284 0.0094634 84 0H36C32.9716 0.0094634 30.427 2.27848 30.072 5.286L22.93 16H14C6.27167 16.0088 0.00881728 22.2717 0 30V98C0.00661224 103.52 4.47989 107.993 10 108H110C115.52 107.993 119.993 103.52 120 98V30C119.991 22.2717 113.728 16.0088 106 16ZM36 4H84C85.1046 4 86 4.89543 86 6C86 7.10457 85.1046 8 84 8H36C34.8954 8 34 7.10457 34 6C34 4.89543 34.8954 4 36 4ZM31.658 10.118C32.784 11.3171 34.3551 11.9981 36 12H84C85.6449 11.9981 87.216 11.3171 88.342 10.118L92.264 16H27.736L31.658 10.118ZM106 20C107.214 20.0077 108.416 20.2382 109.546 20.68C108.539 22.2719 108.003 24.1163 108 26V62C108 63.1046 107.105 64 106 64H70.482C71.337 61.8972 71.8358 59.6667 71.958 57.4C72.5237 50.6398 67.552 44.6798 60.8 44.024C57.4826 43.7902 54.2189 44.9558 51.8 47.238C49.3808 49.5107 48.006 52.6807 48 56C47.9674 58.7407 48.4814 61.4603 49.512 64H14C12.8954 64 12 63.1046 12 62V26C11.9972 24.1163 11.4612 22.2719 10.454 20.68C11.5844 20.2382 12.7863 20.0077 14 20H106ZM52 56C51.9995 53.7856 52.9169 51.67 54.5338 50.157C56.1507 48.6439 58.3225 47.8687 60.532 48.016C65.0632 48.5757 68.3433 52.6143 67.962 57.164C67.8932 58.5217 67.6546 59.8655 67.252 61.164C66.216 59.2241 64.1992 58.0091 62 58H58C55.8021 58.0079 53.7856 59.2204 52.748 61.158C52.2307 59.4883 51.9783 57.7479 52 56ZM64 72H56V64C56 62.8954 56.8954 62 58 62H62C63.1046 62 64 62.8954 64 64V72ZM66 76V80H54V76H66ZM56 84H64V92C64 94.2091 62.2091 96 60 96C57.7909 96 56 94.2091 56 92V84ZM116 98C116 101.314 113.314 104 110 104H10C6.68629 104 4 101.314 4 98V30C4.00239 27.2931 5.10643 24.7038 7.058 22.828C7.6655 23.775 7.99212 24.8749 8 26V62C8 65.3137 10.6863 68 14 68H51.2C51.7214 69.2695 51.993 70.6276 52 72V72.556C50.7665 73.2648 50.0043 74.5773 50 76V80C50.0043 81.4227 50.7665 82.7352 52 83.444V92C52 96.4183 55.5817 100 60 100C64.4183 100 68 96.4183 68 92V83.444C69.2335 82.7352 69.9957 81.4227 70 80V76C69.9957 74.5773 69.2335 73.2648 68 72.556V72C68.0074 70.6277 68.279 69.2696 68.8 68H106C109.314 68 112 65.3137 112 62V26C112.008 24.8749 112.335 23.775 112.942 22.828C114.894 24.7038 115.998 27.2931 116 30V98Z" fill="#216628"/>
</svg>
