<svg width="119" height="120" viewBox="0 0 119 120" fill="none" xmlns="http://www.w3.org/2000/svg">
<path d="M90.9241 87.8075C90.363 87.6207 89.7886 87.4245 89.2162 87.2201V78.8358C90.7603 79.1431 91.6819 79.8821 91.759 79.9456C92.4921 80.5716 93.5939 80.4905 94.2272 79.7614C94.8637 79.0285 94.7857 77.9182 94.0528 77.2819C93.9469 77.19 92.1497 75.6671 89.2165 75.2778V74.5847C89.2165 73.614 88.4294 72.8271 87.4589 72.8271C86.4883 72.8271 85.7013 73.6142 85.7013 74.5847V75.405C85.4044 75.4646 85.102 75.5356 84.7931 75.6232C82.091 76.3899 80.0976 78.5956 79.5914 81.3797C79.1444 83.8371 79.9954 86.1973 81.8123 87.5393C82.7939 88.2645 84.0187 88.9287 85.7013 89.6318V100.232C84.1418 100.143 83.1084 99.8145 81.375 98.7467C80.5483 98.2374 79.4658 98.495 78.9567 99.3214C78.4476 100.148 78.7047 101.231 79.5314 101.74C81.9354 103.221 83.5671 103.646 85.7015 103.748V104.653C85.7015 105.624 86.4886 106.411 87.4591 106.411C88.4297 106.411 89.2167 105.624 89.2167 104.653V103.614C93.3422 102.861 95.947 99.5925 96.4589 96.3706C97.0744 92.4931 94.9022 89.1317 90.9241 87.8075ZM83.9004 84.7116C83.0278 84.0671 82.8888 82.8929 83.0496 82.0088C83.2547 80.8805 84.06 79.5113 85.7008 79.0219V85.775C85.0183 85.4377 84.4036 85.0833 83.9004 84.7116ZM92.9864 95.8191C92.7143 97.5321 91.4409 99.3558 89.216 100.01V90.9413C89.4119 91.0079 89.609 91.0746 89.8137 91.1429C92.1424 91.9182 93.3286 93.6661 92.9864 95.8191Z" fill="white"/>
<path d="M85.8971 13.1326C85.8971 11.3818 84.4728 9.95776 82.7223 9.95776H12.6871C10.9365 9.95776 9.51221 11.3821 9.51221 13.1326V17.8698C9.51221 18.8406 10.2992 19.6274 11.2698 19.6274C12.2403 19.6274 13.0274 18.8403 13.0274 17.8698V13.4729H82.3815V30.4768H13.0276V26.0877C13.0276 25.1169 12.2406 24.3301 11.27 24.3301C10.2995 24.3301 9.51244 25.1171 9.51244 26.0877V30.8174C9.51244 32.5679 10.9367 33.9922 12.6873 33.9922H82.7223C84.4731 33.9922 85.8971 32.5679 85.8971 30.8174V13.1326Z" fill="white"/>
<path d="M24.6033 45.3104C24.6033 43.716 23.3061 42.4189 21.7119 42.4189H13.0238C11.4294 42.4189 10.1323 43.7162 10.1323 45.3104V53.9982C10.1323 55.5927 11.4296 56.89 13.0238 56.89H21.7119C23.3063 56.89 24.6033 55.5927 24.6033 53.9982V45.3104ZM21.0879 53.3746H13.6475V45.9341H21.0879V53.3746Z" fill="white"/>
<path d="M44.8275 45.3104C44.8275 43.716 43.5302 42.4189 41.9357 42.4189H33.2479C31.6535 42.4189 30.3564 43.7162 30.3564 45.3104V53.9982C30.3564 55.5927 31.6537 56.89 33.2479 56.89H41.9357C43.5302 56.89 44.8275 55.5927 44.8275 53.9982V45.3104ZM41.3121 53.3746H33.8716V45.9341H41.3121V53.3746Z" fill="white"/>
<path d="M53.4733 42.4189C51.8788 42.4189 50.5815 43.7162 50.5815 45.3104V53.9982C50.5815 55.5927 51.8788 56.89 53.4733 56.89H62.1611C63.7555 56.89 65.0526 55.5927 65.0526 53.9982V45.3104C65.0526 43.716 63.7553 42.4189 62.1611 42.4189H53.4733ZM61.5374 53.3746H54.0969V45.9341H61.5374V53.3746Z" fill="white"/>
<path d="M82.3852 42.4189H73.6971C72.1027 42.4189 70.8057 43.7162 70.8057 45.3104V53.9982C70.8057 55.5927 72.1029 56.89 73.6971 56.89H82.3852C83.9796 56.89 85.2767 55.5927 85.2767 53.9982V45.3104C85.2767 43.716 83.9794 42.4189 82.3852 42.4189ZM81.7613 53.3746H74.3208V45.9341H81.7613V53.3746Z" fill="white"/>
<path d="M24.6033 66.7059C24.6033 65.1115 23.3061 63.8145 21.7119 63.8145H13.0238C11.4294 63.8145 10.1323 65.1117 10.1323 66.7059V75.3937C10.1323 76.9882 11.4296 78.2855 13.0238 78.2855H21.7119C23.3063 78.2855 24.6033 76.9882 24.6033 75.3937V66.7059ZM21.0879 74.7701H13.6475V67.3296H21.0879V74.7701Z" fill="white"/>
<path d="M44.8275 66.7059C44.8275 65.1115 43.5302 63.8145 41.9357 63.8145H33.2479C31.6535 63.8145 30.3564 65.1117 30.3564 66.7059V75.3937C30.3564 76.9882 31.6537 78.2855 33.2479 78.2855H41.9357C43.5302 78.2855 44.8275 76.9882 44.8275 75.3937V66.7059ZM41.3121 74.7701H33.8716V67.3296H41.3121V74.7701Z" fill="white"/>
<path d="M41.9357 85.2104H33.2479C31.6535 85.2104 30.3564 86.5077 30.3564 88.1019V96.7897C30.3564 98.3842 31.6537 99.6815 33.2479 99.6815H41.9357C43.5302 99.6815 44.8275 98.3842 44.8275 96.7897V88.1019C44.8275 86.5077 43.5302 85.2104 41.9357 85.2104ZM41.3121 96.1663H33.8716V88.7258H41.3121V96.1663Z" fill="white"/>
<path d="M87.6259 59.239C78.6751 59.239 70.6168 63.1308 65.0521 69.3101V66.7062C65.0521 65.1117 63.7548 63.8145 62.1606 63.8145H53.4728C51.8783 63.8145 50.5811 65.1117 50.5811 66.7062V75.394C50.5811 76.9885 51.8783 78.2855 53.4728 78.2855H59.4402C58.555 80.4792 57.9186 82.7991 57.5666 85.2099H53.4728C51.8783 85.2099 50.5811 86.5071 50.5811 88.1016V96.7894C50.5811 98.3839 51.8783 99.6809 53.4728 99.6809H58.9602C63.1218 111.503 74.3992 120 87.6259 120C104.378 120 118.007 106.371 118.007 89.6194C118.007 72.8675 104.378 59.239 87.6259 59.239ZM54.0962 74.7703V67.3299H61.5367V74.0693C61.3982 74.3009 61.2627 74.5348 61.1303 74.7703H54.0962ZM54.0962 96.166V88.7255H57.2596C57.2509 89.0225 57.2455 89.3203 57.2455 89.6196C57.2455 91.8666 57.493 94.0568 57.958 96.166H54.0962ZM87.6259 116.485C72.8125 116.485 60.7607 104.433 60.7607 89.6194C60.7607 74.806 72.8125 62.7542 87.6259 62.7542C102.439 62.7542 114.491 74.806 114.491 89.6194C114.491 104.433 102.44 116.485 87.6259 116.485Z" fill="white"/>
<path d="M87.6269 66.2966C74.7667 66.2966 64.3042 76.7591 64.3042 89.6193C64.3042 102.479 74.7667 112.942 87.6269 112.942C100.487 112.942 110.95 102.479 110.95 89.6193C110.95 76.7591 100.487 66.2966 87.6269 66.2966ZM87.6269 109.427C76.705 109.427 67.8194 100.541 67.8194 89.6193C67.8194 78.6974 76.705 69.8118 87.6269 69.8118C98.5487 69.8118 107.434 78.6974 107.434 89.6193C107.434 100.541 98.5487 109.427 87.6269 109.427Z" fill="white"/>
<path d="M21.7119 85.2104H13.0238C11.4294 85.2104 10.1323 86.5077 10.1323 88.1019V96.7897C10.1323 98.3842 11.4296 99.6815 13.0238 99.6815H21.7119C23.3063 99.6815 24.6033 98.3842 24.6033 96.7897V88.1019C24.6033 86.5077 23.3061 85.2104 21.7119 85.2104ZM21.0879 96.1663H13.6475V88.7258H21.0879V96.1663Z" fill="white"/>
<path d="M62.1525 111.426H10.253C6.53789 111.426 3.51539 108.403 3.51539 104.688V10.2527C3.51539 6.53766 6.53789 3.51516 10.253 3.51516H85.1566C88.8717 3.51516 91.8942 6.53766 91.8942 10.2527V53.3902C91.8942 54.3609 92.6813 55.1477 93.6518 55.1477C94.6223 55.1477 95.4094 54.3607 95.4094 53.3902V10.2527C95.4094 4.59937 90.81 0 85.1566 0H10.253C4.59938 0 0 4.59937 0 10.2527V104.688C0 110.342 4.59938 114.941 10.2527 114.941H62.1525C63.1233 114.941 63.9101 114.154 63.9101 113.184C63.9101 112.213 63.1233 111.426 62.1525 111.426Z" fill="white"/>
</svg>
