<svg width="120" height="120" viewBox="0 0 120 120" fill="none" xmlns="http://www.w3.org/2000/svg">
<path d="M118 104H116V32C116 27.5818 112.418 24 108 24H96V8C96 3.58175 92.4183 0 88 0H32C27.5818 0 24 3.58175 24 8V24H12C7.58175 24 4 27.5818 4 32V104H2C0.8955 104 0 104.896 0 106V112C0 116.418 3.58175 120 8 120H112C116.418 120 120 116.418 120 112V106C120 104.896 119.104 104 118 104ZM28 8C28 5.79075 29.7908 4 32 4H88C90.2092 4 92 5.79075 92 8V16H28V8ZM28 20H92V78C92 80.2093 90.2092 82 88 82H32C29.7908 82 28 80.2093 28 78V20ZM32 86H88C92.4183 86 96 82.4183 96 78V36H104V92H16V36H24V78C24 82.4183 27.5818 86 32 86ZM8 32C8 29.7908 9.79075 28 12 28H24V32H14C12.8955 32 12 32.8955 12 34V94C12 95.1045 12.8955 96 14 96H106C107.104 96 108 95.1045 108 94V34C108 32.8955 107.104 32 106 32H96V28H108C110.209 28 112 29.7908 112 32V104H78C77.47 104 76.9613 104.21 76.586 104.584L73.172 108H46.828L43.414 104.584C43.0388 104.21 42.53 104 42 104H8V32ZM116 112C116 114.209 114.209 116 112 116H8C5.79075 116 4 114.209 4 112V108H41.172L44.586 111.414C44.961 111.789 45.4695 112 46 112H74C74.5305 112 75.039 111.789 75.414 111.414L78.828 108H116V112Z" fill="white"/>
</svg>
