<svg width="120" height="120" viewBox="0 0 120 120" fill="none" xmlns="http://www.w3.org/2000/svg">
<g opacity="0.1">
<path d="M97.2534 37.3516L84.5334 24.6316C84.2713 24.3673 83.9407 24.1815 83.5788 24.0948C83.2168 24.0082 82.8379 24.0243 82.4846 24.1414C82.1313 24.2584 81.8176 24.4716 81.5789 24.7571C81.3402 25.0427 81.1859 25.3891 81.1334 25.7576C80.9231 27.2282 80.3074 28.6112 79.3554 29.7517C78.4034 30.8921 77.1526 31.745 75.7432 32.2147C74.3338 32.6843 72.8215 32.7523 71.3756 32.4109C69.9298 32.0695 68.6076 31.3323 67.5571 30.2819C66.5066 29.2314 65.7694 27.9092 65.428 26.4633C65.0867 25.0175 65.1546 23.5051 65.6243 22.0958C66.094 20.6864 66.9468 19.4356 68.0873 18.4836C69.2277 17.5315 70.6108 16.9159 72.0814 16.7056C72.4498 16.653 72.7963 16.4987 73.0818 16.26C73.3673 16.0213 73.5806 15.7077 73.6976 15.3544C73.8146 15.0011 73.8307 14.6221 73.7441 14.2602C73.6575 13.8983 73.4716 13.5676 73.2074 13.3056L60.4874 0.585573C60.1123 0.210631 59.6037 0 59.0734 0C58.5431 0 58.0344 0.210631 57.6594 0.585573L46.6134 11.6276C46.0695 9.59195 44.9992 7.73541 43.5102 6.24466C42.0211 4.75391 40.1658 3.68151 38.1308 3.1353C36.0958 2.58909 33.9529 2.58833 31.9175 3.1331C29.8821 3.67786 28.026 4.74895 26.5359 6.23864C25.0458 7.72834 23.9742 9.58412 23.4289 11.6194C22.8836 13.6546 22.8838 15.7976 23.4294 17.8327C23.9751 19.8679 25.047 21.7235 26.5373 23.2129C28.0277 24.7024 29.8839 25.7731 31.9194 26.3176L20.8854 37.3516C20.5104 37.7266 20.2998 38.2352 20.2998 38.7656C20.2998 39.2959 20.5104 39.8045 20.8854 40.1796L31.9234 51.2316C29.5003 51.8825 27.3422 53.2765 25.7525 55.2176C24.1629 57.1588 23.2216 59.5493 23.0612 62.0532C22.9007 64.557 23.5291 67.0482 24.8579 69.1763C26.1867 71.3045 28.1492 72.9627 30.4694 73.9176L25.7994 87.3876C25.179 88.7852 24.8874 90.3066 24.9471 91.8345C25.0067 93.3625 25.416 94.8565 26.1434 96.2016L33.1634 112.802C33.1893 112.865 33.2194 112.928 33.2534 112.988C33.745 113.889 34.0016 114.899 33.9994 115.926V117.846C33.9994 118.376 34.2101 118.885 34.5852 119.26C34.9602 119.635 35.4689 119.846 35.9994 119.846C36.5298 119.846 37.0385 119.635 37.4136 119.26C37.7887 118.885 37.9994 118.376 37.9994 117.846V115.926C37.9972 114.262 37.5851 112.624 36.7994 111.158L29.7774 94.5576C29.7495 94.489 29.7175 94.4222 29.6814 94.3576C29.223 93.521 28.9682 92.5881 28.9376 91.6346C28.907 90.6811 29.1015 89.7339 29.5054 88.8696L34.3974 74.7896C34.6074 74.7896 34.8134 74.8196 35.0254 74.8196C37.665 74.8219 40.2315 73.9522 42.326 72.3456C44.4204 70.7391 45.9255 68.4856 46.6074 65.9356L49.9994 69.3136V89.8456C49.9994 90.376 50.2101 90.8847 50.5852 91.2598C50.9602 91.6349 51.4689 91.8456 51.9994 91.8456C52.5298 91.8456 53.0385 91.6349 53.4136 91.2598C53.7887 90.8847 53.9994 90.376 53.9994 89.8456V61.8456C53.9994 60.2543 54.6315 58.7281 55.7567 57.6029C56.882 56.4777 58.4081 55.8456 59.9994 55.8456C61.5907 55.8456 63.1168 56.4777 64.242 57.6029C65.3672 58.7281 65.9994 60.2543 65.9994 61.8456V86.0676C66.0029 88.8616 66.6532 91.6169 67.8994 94.1176L68.6314 95.5856C69.5991 97.5304 70.1028 99.6732 70.1028 101.846C70.1028 104.018 69.5991 106.161 68.6314 108.106L66.6314 112.106C66.2162 112.939 65.9998 113.858 65.9994 114.79V117.846C65.9994 118.376 66.2101 118.885 66.5852 119.26C66.9602 119.635 67.469 119.846 67.9994 119.846C68.5298 119.846 69.0385 119.635 69.4136 119.26C69.7887 118.885 69.9994 118.376 69.9994 117.846V114.79C69.9973 114.48 70.0657 114.175 70.1994 113.896L72.1994 109.896C73.4434 107.395 74.0908 104.64 74.0908 101.847C74.0908 99.0535 73.4434 96.2984 72.1994 93.7976L71.4674 92.3296C70.7503 90.8894 70.2856 89.3369 70.0934 87.7396C71.3923 89.0432 72.9363 90.0771 74.6363 90.7818C76.3364 91.4865 78.1591 91.848 79.9994 91.8456C81.5907 91.8456 83.1168 91.2134 84.242 90.0882C85.3672 88.963 85.9994 87.4369 85.9994 85.8456V74.4456C88.5807 73.8069 90.8764 72.328 92.5253 70.2417C94.1741 68.1554 95.0825 65.5801 95.1074 62.9211C95.1324 60.262 94.2726 57.6701 92.6632 55.5532C91.0538 53.4363 88.7863 51.9146 86.2174 51.2276L97.2534 40.1756C97.6271 39.8007 97.837 39.2929 97.837 38.7636C97.837 38.2342 97.6271 37.7265 97.2534 37.3516ZM79.9994 87.8456C77.3482 87.8424 74.8065 86.7878 72.9318 84.9131C71.0572 83.0385 70.0026 80.4968 69.9994 77.8456V67.4456L71.5274 65.9176C72.1577 68.286 73.5 70.4039 75.3728 71.9848C77.2457 73.5658 79.5587 74.5337 81.9994 74.7576V85.8456C81.9994 86.376 81.7887 86.8847 81.4136 87.2598C81.0385 87.6349 80.5298 87.8456 79.9994 87.8456ZM80.2854 51.5116C79.9852 51.8083 79.7867 52.1923 79.7181 52.6088C79.6494 53.0252 79.7143 53.4527 79.9034 53.83C80.0925 54.2073 80.3962 54.5151 80.7708 54.7094C81.1455 54.9037 81.572 54.9744 81.9894 54.9116C83.651 54.6764 85.3445 54.9697 86.8302 55.75C88.3159 56.5303 89.5187 57.7581 90.2682 59.2596C91.0177 60.7611 91.2761 62.4602 91.0067 64.1167C90.7374 65.7731 89.9539 67.3028 88.7673 68.4895C87.5807 69.6761 86.0509 70.4596 84.3945 70.7289C82.7381 70.9983 81.0389 70.7399 79.5374 69.9904C78.0359 69.2409 76.8081 68.0381 76.0278 66.5524C75.2475 65.0667 74.9542 63.3732 75.1894 61.7116C75.2523 61.2942 75.1815 60.8677 74.9872 60.493C74.7929 60.1183 74.4851 59.8147 74.1078 59.6256C73.7305 59.4365 73.303 59.3716 72.8866 59.4402C72.4702 59.5088 72.0861 59.7074 71.7894 60.0076L69.9994 61.8016C69.9965 60.4884 69.735 59.1886 69.2298 57.9764C68.7245 56.7643 67.9855 55.6635 67.0549 54.7369C66.1243 53.8104 65.0203 53.0762 63.8059 52.5764C62.5915 52.0765 61.2906 51.8207 59.9774 51.8236C58.6642 51.8265 57.3644 52.088 56.1522 52.5932C54.9401 53.0984 53.8393 53.8374 52.9128 54.7681C51.0415 56.6476 49.9935 59.1934 49.9994 61.8456V63.6576L46.3334 59.9916C46.0367 59.6914 45.6526 59.4928 45.2362 59.4242C44.8197 59.3556 44.3923 59.4205 44.015 59.6096C43.6376 59.7987 43.3298 60.1023 43.1355 60.477C42.9413 60.8517 42.8705 61.2782 42.9334 61.6956C43.1685 63.3572 42.8752 65.0507 42.0949 66.5364C41.3146 68.0221 40.0869 69.2249 38.5854 69.9744C37.0839 70.7239 35.3847 70.9823 33.7283 70.7129C32.0719 70.4436 30.5421 69.6601 29.3555 68.4735C28.1688 67.2868 27.3854 65.7571 27.116 64.1007C26.8467 62.4442 27.105 60.7451 27.8546 59.2436C28.6041 57.7421 29.8068 56.5143 31.2925 55.734C32.7783 54.9537 34.4718 54.6604 36.1334 54.8956C36.5509 54.959 36.9778 54.8886 37.3528 54.6945C37.7279 54.5005 38.0319 54.1926 38.2213 53.8152C38.4107 53.4378 38.4757 53.01 38.4071 52.5934C38.3385 52.1767 38.1398 51.7924 37.8394 51.4956L25.1254 38.7656L37.8534 26.0456C38.1535 25.7489 38.3521 25.3648 38.4207 24.9484C38.4893 24.5319 38.4244 24.1045 38.2353 23.7271C38.0462 23.3498 37.7426 23.042 37.3679 22.8477C36.9933 22.6535 36.5667 22.5827 36.1494 22.6456C34.49 22.8775 32.7996 22.5825 31.3168 21.8023C29.834 21.0221 28.6336 19.7959 27.885 18.2969C27.1363 16.7979 26.8773 15.1017 27.1443 13.4475C27.4114 11.7934 28.1911 10.2648 29.3734 9.07757C30.8982 7.62497 32.9234 6.81472 35.0294 6.81472C37.1353 6.81472 39.1606 7.62497 40.6854 9.07757C41.5606 9.95509 42.22 11.024 42.6115 12.1999C43.003 13.3758 43.1159 14.6266 42.9414 15.8536C42.8785 16.2709 42.9493 16.6974 43.1435 17.0721C43.3378 17.4468 43.6456 17.7504 44.023 17.9395C44.4003 18.1286 44.8277 18.1935 45.2442 18.1249C45.6606 18.0563 46.0447 17.8577 46.3414 17.5576L59.0794 4.83357L68.0414 13.7976C66.309 14.6249 64.8005 15.8558 63.6424 17.3869C62.4843 18.918 61.7104 20.7047 61.3858 22.5968C61.0611 24.4889 61.1952 26.4313 61.7767 28.2609C62.3582 30.0904 63.3702 31.7538 64.7277 33.1113C66.0852 34.4688 67.7485 35.4807 69.5781 36.0622C71.4077 36.6438 73.3501 36.7778 75.2422 36.4532C77.1343 36.1285 78.9209 35.3547 80.452 34.1966C81.9831 33.0385 83.214 31.5299 84.0414 29.7976L93.0054 38.7596L80.2854 51.5116Z" fill="#216628"/>
<path d="M118.001 41.8457H106.001C105.471 41.8457 104.962 41.635 104.587 41.2599C104.212 40.8848 104.001 40.3761 104.001 39.8457C104.001 39.3153 104.212 38.8066 104.587 38.4315C104.962 38.0564 105.471 37.8457 106.001 37.8457H118.001C118.531 37.8457 119.04 38.0564 119.415 38.4315C119.79 38.8066 120.001 39.3153 120.001 39.8457C120.001 40.3761 119.79 40.8848 119.415 41.2599C119.04 41.635 118.531 41.8457 118.001 41.8457Z" fill="#216628"/>
<path d="M103.839 18.8443C103.399 18.8442 102.971 18.699 102.622 18.4309C102.273 18.1629 102.021 17.7872 101.908 17.3619C101.794 16.9367 101.823 16.4857 101.992 16.0789C102.16 15.6722 102.458 15.3324 102.839 15.1123L113.239 9.11226C113.698 8.85123 114.242 8.78239 114.752 8.92077C115.261 9.05914 115.696 9.3935 115.96 9.85087C116.224 10.3082 116.296 10.8515 116.161 11.3621C116.026 11.8727 115.695 12.3092 115.239 12.5763L104.839 18.5763C104.536 18.7525 104.19 18.845 103.839 18.8443Z" fill="#216628"/>
<path d="M114.229 70.8453C113.878 70.846 113.533 70.7535 113.229 70.5773L102.829 64.5773C102.6 64.4469 102.399 64.2725 102.237 64.064C102.076 63.8556 101.957 63.6172 101.888 63.3626C101.819 63.1081 101.801 62.8424 101.835 62.5808C101.869 62.3193 101.954 62.067 102.086 61.8386C102.218 61.6102 102.393 61.4101 102.603 61.2499C102.813 61.0897 103.052 60.9725 103.307 60.9051C103.562 60.8376 103.827 60.8213 104.089 60.8571C104.35 60.8928 104.602 60.9799 104.829 61.1133L115.229 67.1133C115.611 67.3334 115.909 67.6732 116.077 68.0799C116.246 68.4867 116.275 68.9377 116.161 69.3629C116.047 69.7882 115.796 70.1639 115.447 70.432C115.098 70.7 114.67 70.8453 114.229 70.8453Z" fill="#216628"/>
<path d="M14 41.8457H2C1.46957 41.8457 0.960859 41.635 0.585786 41.2599C0.210714 40.8848 0 40.3761 0 39.8457C0 39.3153 0.210714 38.8066 0.585786 38.4315C0.960859 38.0564 1.46957 37.8457 2 37.8457H14C14.5304 37.8457 15.0391 38.0564 15.4142 38.4315C15.7893 38.8066 16 39.3153 16 39.8457C16 40.3761 15.7893 40.8848 15.4142 41.2599C15.0391 41.635 14.5304 41.8457 14 41.8457Z" fill="#216628"/>
<path d="M16.161 18.8443C15.8098 18.845 15.4647 18.7525 15.161 18.5763L4.76098 12.5763C4.30536 12.3092 3.97389 11.8727 3.8389 11.3621C3.70391 10.8515 3.77635 10.3082 4.04043 9.85087C4.3045 9.3935 4.73876 9.05914 5.24845 8.92077C5.75813 8.78239 6.30186 8.85123 6.76098 9.11226L17.161 15.1123C17.5422 15.3324 17.8402 15.6722 18.0087 16.0789C18.1771 16.4857 18.2067 16.9367 18.0927 17.3619C17.9788 17.7872 17.7277 18.1629 17.3784 18.4309C17.0292 18.699 16.6012 18.8442 16.161 18.8443Z" fill="#216628"/>
<path d="M5.77237 70.8453C5.33212 70.8453 4.90418 70.7 4.55491 70.432C4.20564 70.1639 3.95456 69.7882 3.84061 69.3629C3.72666 68.9377 3.75622 68.4867 3.92468 68.0799C4.09315 67.6732 4.39112 67.3334 4.77237 67.1133L15.1724 61.1133C15.3999 60.9799 15.6516 60.8928 15.9129 60.8571C16.1743 60.8213 16.4401 60.8376 16.6951 60.9051C16.9501 60.9725 17.1892 61.0897 17.3987 61.2499C17.6083 61.4101 17.784 61.6102 17.9159 61.8386C18.0478 62.067 18.1332 62.3193 18.1672 62.5808C18.2012 62.8424 18.1831 63.1081 18.114 63.3626C18.0449 63.6172 17.9261 63.8556 17.7645 64.064C17.6029 64.2725 17.4017 64.4469 17.1724 64.5773L6.77237 70.5773C6.46863 70.7535 6.12355 70.846 5.77237 70.8453Z" fill="#216628"/>
</g>
</svg>
