<svg width="0" height="0" class="hidden">
  <symbol viewBox="0 0 10 18"  xmlns="http://www.w3.org/2000/svg" id="facebook">
    <path d="M9.365.004L7.031 0C4.409 0 2.714 1.739 2.714 4.43v2.042H.367A.367.367 0 0 0 0 6.84V9.8c0 .203.164.367.367.367h2.347v7.467c0 .203.164.367.367.367h3.062a.367.367 0 0 0 .367-.367v-7.467h2.744a.367.367 0 0 0 .367-.367l.001-2.96a.368.368 0 0 0-.367-.367H6.51V4.741c0-.832.198-1.255 1.282-1.255h1.573a.367.367 0 0 0 .367-.367V.37a.367.367 0 0 0-.367-.367z"
    ></path>
  </symbol>

  <symbol viewBox="0 0 18 18"  xmlns="http://www.w3.org/2000/svg" id="twitter">
    <g clip-path="url(#clip0)">
      <path d="M17.592 3.332a6.824 6.824 0 0 1-.87.318c.35-.398.619-.866.783-1.378a.29.29 0 0 0-.425-.338 6.85 6.85 0 0 1-2.025.8 3.883 3.883 0 0 0-2.705-1.102 3.868 3.868 0 0 0-3.832 4.363 9.893 9.893 0 0 1-6.79-3.602.29.29 0 0 0-.476.037 3.862 3.862 0 0 0-.524 1.943c0 .931.333 1.814.92 2.505a3.273 3.273 0 0 1-.517-.231.29.29 0 0 0-.431.247v.052c0 1.39.747 2.64 1.89 3.322a3.341 3.341 0 0 1-.293-.042.29.29 0 0 0-.331.374 3.863 3.863 0 0 0 2.83 2.59 6.836 6.836 0 0 1-3.654 1.043c-.273 0-.549-.017-.818-.049a.29.29 0 0 0-.19.533 10.42 10.42 0 0 0 5.634 1.652c3.934 0 6.395-1.855 7.767-3.412 1.71-1.94 2.692-4.509 2.692-7.047 0-.106-.002-.213-.005-.32a7.513 7.513 0 0 0 1.729-1.83.29.29 0 0 0-.36-.428z"
        ></path>
    </g>
    <defs>
      <clipPath id="clip0">
        <path d="M0 0h18v18H0z"></path>
      </clipPath>
    </defs>
  </symbol>

   <symbol viewBox="0 0 18 18" xmlns="http://www.w3.org/2000/svg" id="linkedin">
    <g clip-path="url(#clip0)">
      <path d="M17.995 18v-.001h.004v-6.602c0-3.23-.695-5.717-4.47-5.717-1.816 0-3.034.996-3.53 1.94h-.053V5.982h-3.58v12.017h3.727v-5.95c0-1.567.297-3.082 2.238-3.082 1.911 0 1.94 1.787 1.94 3.182v5.85h3.724zM.298 5.983H4.03V18H.298V5.983zM2.162 0A2.162 2.162 0 0 0 0 2.162c0 1.193.968 2.181 2.162 2.181 1.193 0 2.161-.988 2.161-2.181A2.163 2.163 0 0 0 2.161 0z"></path>
    </g>
    <defs>
      <clipPath id="clip0">
        <path d="M0 0h18v18H0z"></path>
      </clipPath>
    </defs>
  </symbol>

  <symbol viewBox="0 0 18 18" xmlns="http://www.w3.org/2000/svg" id="copy">
    <path d="M10.981 7.016a4.2 4.2 0 0 0-5.939 0l-3.815 3.818a4.2 4.2 0 0 0 5.936 5.942l3.15-3.15a.3.3 0 0 0-.213-.512h-.12a5.048 5.048 0 0 1-1.92-.372.3.3 0 0 0-.327.066l-2.265 2.268a1.8 1.8 0 0 1-2.546-2.547l3.83-3.827a1.8 1.8 0 0 1 2.544 0 1.23 1.23 0 0 0 1.685 0 1.2 1.2 0 0 0 .348-.762 1.2 1.2 0 0 0-.348-.924z"
      ></path>
    <path d="M16.766 1.23a4.2 4.2 0 0 0-5.939 0L7.681 4.373a.3.3 0 0 0 .218.513h.111a5.04 5.04 0 0 1 1.917.375.3.3 0 0 0 .327-.066l2.259-2.255a1.8 1.8 0 0 1 2.546 2.546l-2.813 2.81-.024.028-.984.978a1.8 1.8 0 0 1-2.544 0 1.23 1.23 0 0 0-1.685 0 1.2 1.2 0 0 0 0 1.692 4.19 4.19 0 0 0 1.2.84c.062.03.125.053.188.08.063.027.13.048.192.072.063.024.13.045.192.063l.177.048c.12.03.24.054.363.075.148.022.297.036.447.042h.228l.18-.021c.066-.003.135-.018.213-.018h.102l.207-.03.096-.018.174-.036H11a4.198 4.198 0 0 0 1.947-1.104l3.818-3.818a4.2 4.2 0 0 0 0-5.939z"></path>
  </symbol>

  <symbol viewBox="0 0 19 26" xmlns="http://www.w3.org/2000/svg" id="location">
    <path d="M9.022 0C4.047 0 0 4.048 0 9.023c0 4.79 8.186 15.978 8.535 16.452l.325.442a.201.201 0 0 0 .326 0l.325-.442C9.86 25 18.046 13.812 18.046 9.023 18.046 4.048 13.998 0 9.022 0zm0 5.791a3.235 3.235 0 0 1 3.232 3.232 3.236 3.236 0 0 1-3.232 3.232A3.237 3.237 0 0 1 5.79 9.023a3.236 3.236 0 0 1 3.232-3.232z"
    ></path>
  </symbol>

  <symbol viewBox="0 0 19 30" fill="none" xmlns="http://www.w3.org/2000/svg" id="phone">
    <rect x="1" y="1" width="16.182" height="28" rx="2" stroke="#F8710F" stroke-width="2" stroke-linecap="square" stroke-linejoin="round"></rect>
    <path fill="#F8710F" d="M1.667.833h15v3.333h-15zm0 25h15v3.333h-15z"></path>
    <path d="M10.747 27.197h-2.78a.695.695 0 1 0 0 1.39h2.78a.695.695 0 0 0 0-1.39zM7.349 3.257a.682.682 0 1 0 0-1.363.682.682 0 0 0 0 1.363z" fill="#F2F2F2"></path>
    <rect x="8.804" y="1.894" width="3.409" height="1.364" rx=".682" fill="#F2F2F2"></rect>
  </symbol>

  <symbol viewBox="0 0 30 23" xmlns="http://www.w3.org/2000/svg" id="message">
    <path d="M.626 1.826C4.743 5.313 11.968 11.447 14.09 13.36c.286.258.591.39.909.39.316 0 .622-.13.906-.388 2.125-1.914 9.35-8.05 13.467-11.536a.624.624 0 0 0 .088-.863A2.482 2.482 0 0 0 27.5 0h-25C1.733 0 1.018.351.538.963a.625.625 0 0 0 .088.863zm29.011 1.889a.622.622 0 0 0-.666.09c-2.697 2.287-6.25 5.307-8.929 7.611a.624.624 0 0 0 .017.962c2.49 1.994 6.242 4.736 8.951 6.686a.623.623 0 0 0 .65.049.625.625 0 0 0 .34-.556V4.283a.625.625 0 0 0-.363-.568zM.99 19.064c2.71-1.95 6.462-4.693 8.951-6.687a.624.624 0 0 0 .018-.961 1803.43 1803.43 0 0 0-8.93-7.61A.625.625 0 0 0 0 4.281v14.274a.625.625 0 0 0 .99.508z"
    ></path>
    <path d="M29.234 20.764c-2.616-1.872-7.436-5.361-10.314-7.697a.626.626 0 0 0-.804.014c-.564.493-1.037.908-1.372 1.21-1.03.928-2.457.928-3.489-.002-.334-.3-.806-.717-1.37-1.208a.623.623 0 0 0-.804-.014C8.213 15.395 3.388 18.89.767 20.764a.627.627 0 0 0-.094.934c.473.51 1.14.802 1.827.802h25c.688 0 1.354-.292 1.828-.802a.625.625 0 0 0-.094-.934z"
    ></path>
  </symbol>

  <symbol viewBox="0 0 30 30" xmlns="http://www.w3.org/2000/svg" id="twitter-footer">
    <path d="M26.74 0H3.26A3.265 3.265 0 0 0 0 3.26v23.48A3.265 3.265 0 0 0 3.26 30h23.48A3.265 3.265 0 0 0 30 26.74V3.26A3.265 3.265 0 0 0 26.74 0zm1.956 26.74a1.96 1.96 0 0 1-1.957 1.956H3.261a1.96 1.96 0 0 1-1.957-1.957V3.261a1.96 1.96 0 0 1 1.957-1.957h23.478a1.96 1.96 0 0 1 1.957 1.957v23.478z"
     ></path>
    <path d="M20.217 18.26h-7.174v-2.608h4.565a3.265 3.265 0 0 0 3.261-3.26 3.265 3.265 0 0 0-3.26-3.262h-4.566v-.652a3.265 3.265 0 0 0-3.26-3.26 3.265 3.265 0 0 0-3.262 3.26v10.435a5.876 5.876 0 0 0 5.87 5.87h7.826a3.265 3.265 0 0 0 3.261-3.261 3.265 3.265 0 0 0-3.26-3.261zm0 5.218h-7.826a4.571 4.571 0 0 1-4.565-4.565V8.478a1.96 1.96 0 0 1 1.956-1.956 1.96 1.96 0 0 1 1.957 1.956v1.305c0 .36.291.652.652.652h5.217a1.96 1.96 0 0 1 1.957 1.956 1.96 1.96 0 0 1-1.957 1.957h-5.217a.651.651 0 0 0-.652.652v3.913c0 .36.291.652.652.652h7.826a1.96 1.96 0 0 1 1.957 1.957 1.96 1.96 0 0 1-1.957 1.956z"
    ></path>
  </symbol>

  <symbol viewBox="0 0 30 30" xmlns="http://www.w3.org/2000/svg" id="linkedin-footer">
    <path d="M7.927 5.25a2.62 2.62 0 0 0-1.884.76 2.628 2.628 0 0 0-.793 1.884c0 .727.297 1.388.793 1.884.496.496 1.19.793 1.851.76h.066c.661 0 1.29-.264 1.785-.76a2.65 2.65 0 0 0 .793-1.884c.033-.694-.264-1.355-.76-1.85a2.501 2.501 0 0 0-1.85-.794zm1.355 4.065c-.363.364-.86.595-1.388.562a2.006 2.006 0 0 1-1.388-.562c-.397-.363-.595-.892-.595-1.42a1.975 1.975 0 0 1 2.016-1.984c.496 0 .992.198 1.355.562.397.397.595.892.595 1.421s-.198 1.058-.595 1.421zM9.216 11.2H6.539c-.53 0-.959.429-.959.99v11.57c0 .528.463.991.992.991h2.644c.528 0 .991-.463.991-.958V12.19c0-.53-.463-.992-.991-.992zm.33 12.592c0 .165-.165.297-.33.297H6.572a.355.355 0 0 1-.33-.33V12.19c0-.166.131-.33.297-.33h2.677c.165 0 .33.164.33.33v11.6zm10.907-12.923h-.694c-1.289 0-2.512.562-3.305 1.454v-.463c0-.33-.33-.66-.66-.66h-3.306c-.297 0-.66.264-.66.627v12.328c0 .364.363.595.66.595h3.636c.297 0 .66-.231.66-.595v-7.139c0-1.09.794-1.95 1.819-1.95.528 0 1.024.198 1.388.562.33.297.462.76.462 1.355v7.106c0 .33.33.661.662.661h3.305c.33 0 .66-.33.66-.661v-8.527c0-2.644-2.015-4.693-4.627-4.693zm3.966 13.187l-.032.033h-3.24l-.033-7.106c0-.793-.198-1.388-.628-1.818a2.6 2.6 0 0 0-1.85-.76c-1.389.033-2.48 1.157-2.48 2.611v7.073h-3.635V11.86h3.272l.033.033v2.082l.893-.892.033-.033c.66-.925 1.818-1.52 3.04-1.52h.694c2.215 0 3.933 1.784 3.933 4.032v8.494z"
    ></path>
    <path d="M26.74 0H3.26A3.265 3.265 0 0 0 0 3.26v23.48A3.265 3.265 0 0 0 3.26 30h23.48A3.265 3.265 0 0 0 30 26.74V3.26A3.265 3.265 0 0 0 26.74 0zm1.956 26.74a1.96 1.96 0 0 1-1.957 1.956H3.261a1.96 1.96 0 0 1-1.957-1.957V3.261a1.96 1.96 0 0 1 1.957-1.957h23.478a1.96 1.96 0 0 1 1.957 1.957v23.478z"
    ></path>
  </symbol>

  <symbol viewBox="0 0 30 30" xmlns="http://www.w3.org/2000/svg" id="facebook-footer">
    <path d="M27.5 0h-25C1.1 0 0 1.1 0 2.5v25C0 28.9 1.1 30 2.5 30h25c1.4 0 2.5-1.1 2.5-2.5v-25C30 1.1 28.9 0 27.5 0zM15 29V19h-4v-4h4v-3.5c0-2.85 2.2-5.25 5-5.5h4.5v4h-4c-.85 0-1.5.65-1.5 1.5V15h5v4h-5v10h-4zm14-1.5c0 .85-.65 1.5-1.5 1.5H20v-9h5v-6h-5v-2.5c0-.3.2-.5.5-.5h5V5h-5.55C16.6 5.3 14 8.15 14 11.5V14h-4v6h4v9H2.5c-.85 0-1.5-.65-1.5-1.5v-25C1 1.65 1.65 1 2.5 1h25c.85 0 1.5.65 1.5 1.5v25z"
  ></path>
  </symbol>

  <symbol viewBox="0 0 12 12" xmlns="http://www.w3.org/2000/svg" id="arrow-left">
    <path fill-rule="evenodd" clip-rule="evenodd" d="M.98 5.091a.747.747 0 0 1 .008-.007L5.789.282a.4.4 0 1 1 .567.567L1.547 5.657l4.807 4.808a.4.4 0 1 1-.565.565L.98 6.222a.8.8 0 0 1 0-1.131z"></path>
  </symbol>

  <symbol viewBox="0 0 120 120" xmlns="http://www.w3.org/2000/svg" id="set-one">
    <path d="M118 104h-2V32a8 8 0 0 0-8-8H96V8a8 8 0 0 0-8-8H32a8 8 0 0 0-8 8v16H12a8 8 0 0 0-8 8v72H2a2 2 0 0 0-2 2v6a8 8 0 0 0 8 8h104a8 8 0 0 0 8-8v-6a2 2 0 0 0-2-2zM28 8a4 4 0 0 1 4-4h56a4 4 0 0 1 4 4v8H28V8zm0 12h64v58a4 4 0 0 1-4 4H32a4 4 0 0 1-4-4V20zm4 66h56a8 8 0 0 0 8-8V36h8v56H16V36h8v42a8 8 0 0 0 8 8zM8 32a4 4 0 0 1 4-4h12v4H14a2 2 0 0 0-2 2v60a2 2 0 0 0 2 2h92a2 2 0 0 0 2-2V34a2 2 0 0 0-2-2H96v-4h12a4 4 0 0 1 4 4v72H78c-.53 0-1.039.21-1.414.584L73.172 108H46.828l-3.414-3.416A2.003 2.003 0 0 0 42 104H8V32zm108 80a4 4 0 0 1-4 4H8a4 4 0 0 1-4-4v-4h37.172l3.414 3.414A2 2 0 0 0 46 112h28a2 2 0 0 0 1.414-.586L78.828 108H116v4z"></path>
  </symbol>

  <symbol viewBox="0 0 119 120" xmlns="http://www.w3.org/2000/svg" id="set-two">
    <path d="M90.924 87.808a83.845 83.845 0 0 1-1.708-.588v-8.384c1.544.307 2.466 1.046 2.543 1.11a1.758 1.758 0 0 0 2.294-2.664c-.106-.092-1.903-1.615-4.837-2.004v-.693a1.758 1.758 0 0 0-3.515 0v.82c-.297.06-.599.13-.908.218-2.702.767-4.695 2.973-5.202 5.757-.447 2.457.404 4.817 2.221 6.16.982.724 2.207 1.389 3.89 2.092v10.6c-1.56-.089-2.594-.418-4.327-1.485a1.757 1.757 0 1 0-1.844 2.993c2.404 1.481 4.036 1.906 6.17 2.008v.905a1.758 1.758 0 1 0 3.516 0v-1.039c4.125-.753 6.73-4.022 7.242-7.243.615-3.878-1.557-7.24-5.535-8.563zM83.9 84.712c-.872-.645-1.011-1.82-.85-2.703.205-1.129 1.01-2.498 2.65-2.987v6.753c-.682-.337-1.296-.692-1.8-1.063zm9.086 11.107c-.272 1.713-1.545 3.537-3.77 4.191v-9.069c.196.067.393.134.598.202 2.328.775 3.515 2.523 3.172 4.676zm-7.089-82.686a3.178 3.178 0 0 0-3.175-3.175H12.687a3.179 3.179 0 0 0-3.175 3.175v4.737a1.758 1.758 0 1 0 3.515 0v-4.397h69.355v17.004H13.028v-4.39a1.758 1.758 0 1 0-3.516 0v4.73a3.178 3.178 0 0 0 3.175 3.175h70.035a3.178 3.178 0 0 0 3.175-3.175V13.133zM24.603 45.31a2.895 2.895 0 0 0-2.891-2.891h-8.688a2.895 2.895 0 0 0-2.892 2.891v8.688a2.895 2.895 0 0 0 2.892 2.892h8.688a2.895 2.895 0 0 0 2.891-2.892V45.31zm-3.515 8.065h-7.44v-7.44h7.44v7.44zm23.74-8.065a2.895 2.895 0 0 0-2.892-2.891h-8.688a2.895 2.895 0 0 0-2.892 2.891v8.688a2.895 2.895 0 0 0 2.892 2.892h8.688a2.895 2.895 0 0 0 2.892-2.892V45.31zm-3.516 8.065h-7.44v-7.44h7.44v7.44zm12.161-10.956a2.895 2.895 0 0 0-2.892 2.891v8.688a2.895 2.895 0 0 0 2.892 2.892h8.688a2.895 2.895 0 0 0 2.892-2.892V45.31a2.895 2.895 0 0 0-2.892-2.891h-8.688zm8.064 10.956h-7.44v-7.44h7.44v7.44zm20.848-10.956h-8.688a2.895 2.895 0 0 0-2.891 2.891v8.688a2.895 2.895 0 0 0 2.891 2.892h8.688a2.895 2.895 0 0 0 2.892-2.892V45.31a2.895 2.895 0 0 0-2.892-2.891zm-.624 10.956h-7.44v-7.44h7.44v7.44zM24.603 66.706a2.895 2.895 0 0 0-2.891-2.892h-8.688a2.895 2.895 0 0 0-2.892 2.892v8.688a2.895 2.895 0 0 0 2.892 2.891h8.688a2.895 2.895 0 0 0 2.891-2.891v-8.688zm-3.515 8.064h-7.44v-7.44h7.44v7.44zm23.74-8.064a2.895 2.895 0 0 0-2.892-2.892h-8.688a2.895 2.895 0 0 0-2.892 2.892v8.688a2.895 2.895 0 0 0 2.892 2.891h8.688a2.895 2.895 0 0 0 2.892-2.891v-8.688zm-3.516 8.064h-7.44v-7.44h7.44v7.44zm.624 10.44h-8.688a2.895 2.895 0 0 0-2.892 2.892v8.688a2.895 2.895 0 0 0 2.892 2.891h8.688a2.895 2.895 0 0 0 2.892-2.891v-8.688a2.895 2.895 0 0 0-2.892-2.892zm-.624 10.956h-7.44v-7.44h7.44v7.44z"
      ></path>
    <path d="M87.626 59.239c-8.95 0-17.01 3.892-22.574 10.071v-2.604a2.895 2.895 0 0 0-2.891-2.892h-8.688a2.895 2.895 0 0 0-2.892 2.892v8.688a2.895 2.895 0 0 0 2.892 2.891h5.967a30.124 30.124 0 0 0-1.873 6.925h-4.094a2.895 2.895 0 0 0-2.892 2.892v8.687a2.895 2.895 0 0 0 2.892 2.892h5.487C63.122 111.503 74.4 120 87.626 120c16.752 0 30.381-13.629 30.381-30.38 0-16.752-13.629-30.381-30.381-30.381zM54.096 74.77v-7.44h7.44v6.74c-.138.23-.273.465-.406.7h-7.034zm0 21.396v-7.44h3.164a30.378 30.378 0 0 0 .698 7.44h-3.862zm33.53 20.319c-14.814 0-26.865-12.052-26.865-26.866 0-14.813 12.051-26.865 26.865-26.865 14.813 0 26.865 12.052 26.865 26.865 0 14.814-12.051 26.866-26.865 26.866z"
      ></path>
    <path d="M87.627 66.297c-12.86 0-23.323 10.462-23.323 23.322s10.463 23.323 23.323 23.323c12.86 0 23.323-10.463 23.323-23.323 0-12.86-10.463-23.322-23.323-23.322zm0 43.13c-10.922 0-19.808-8.886-19.808-19.808s8.886-19.807 19.808-19.807 19.807 8.885 19.807 19.807c0 10.922-8.885 19.808-19.807 19.808zM21.712 85.21h-8.688a2.895 2.895 0 0 0-2.892 2.892v8.688a2.895 2.895 0 0 0 2.892 2.891h8.688a2.895 2.895 0 0 0 2.891-2.891v-8.688a2.895 2.895 0 0 0-2.891-2.892zm-.624 10.956h-7.44v-7.44h7.44v7.44z"
      ></path>
    <path d="M62.153 111.426h-51.9a6.746 6.746 0 0 1-6.738-6.738V10.253a6.745 6.745 0 0 1 6.738-6.738h74.904a6.745 6.745 0 0 1 6.737 6.738V53.39a1.758 1.758 0 0 0 3.515 0V10.253C95.41 4.599 90.81 0 85.157 0H10.253C4.599 0 0 4.6 0 10.253v94.435c0 5.654 4.6 10.253 10.253 10.253h51.9a1.757 1.757 0 1 0 0-3.515z"
     ></path>
  </symbol>

  <symbol viewBox="0 0 120 108" xmlns="http://www.w3.org/2000/svg" id="portfolio">
    <path d="M106 16h-8.93L89.928 5.286A5.988 5.988 0 0 0 84 0H36a5.988 5.988 0 0 0-5.928 5.286L22.93 16H14C6.272 16.009.009 22.272 0 30v68c.007 5.52 4.48 9.993 10 10h100c5.52-.007 9.993-4.48 10-10V30c-.009-7.728-6.272-13.991-14-14zM36 4h48a2 2 0 1 1 0 4H36a2 2 0 1 1 0-4zm-4.342 6.118A5.966 5.966 0 0 0 36 12h48a5.966 5.966 0 0 0 4.342-1.882L92.264 16H27.736l3.922-5.882zM106 20a9.911 9.911 0 0 1 3.546.68A9.981 9.981 0 0 0 108 26v36a2 2 0 0 1-2 2H70.482a20.445 20.445 0 0 0 1.476-6.6c.566-6.76-4.406-12.72-11.158-13.376a11.896 11.896 0 0 0-9 3.214A12.052 12.052 0 0 0 48 56c-.033 2.74.481 5.46 1.512 8H14a2 2 0 0 1-2-2V26a9.978 9.978 0 0 0-1.546-5.32A9.914 9.914 0 0 1 14 20h92zM52 56a8 8 0 0 1 8.532-7.984 8.502 8.502 0 0 1 7.43 9.148 16.291 16.291 0 0 1-.71 4A5.982 5.982 0 0 0 62 58h-4a5.982 5.982 0 0 0-5.252 3.158c-.517-1.67-.77-3.41-.748-5.158zm12 16h-8v-8a2 2 0 0 1 2-2h4a2 2 0 0 1 2 2v8zm2 4v4H54v-4h12zm-10 8h8v8a4 4 0 0 1-8 0v-8zm60 14a6 6 0 0 1-6 6H10a6 6 0 0 1-6-6V30a9.96 9.96 0 0 1 3.058-7.172c.607.947.934 2.047.942 3.172v36a6 6 0 0 0 6 6h37.2c.521 1.27.793 2.628.8 4v.556A3.986 3.986 0 0 0 50 76v4a3.986 3.986 0 0 0 2 3.444V92a8 8 0 1 0 16 0v-8.556A3.986 3.986 0 0 0 70 80v-4a3.986 3.986 0 0 0-2-3.444V72c.007-1.372.279-2.73.8-4H106a6 6 0 0 0 6-6V26a5.957 5.957 0 0 1 .942-3.172A9.957 9.957 0 0 1 116 30v68z"
      ></path>
  </symbol>

  <symbol viewBox="0 0 120 120" xmlns="http://www.w3.org/2000/svg" id="solution">
    <path d="M97.253 37.352l-12.72-12.72a2 2 0 0 0-3.4 1.126 8 8 0 1 1-9.052-9.052 2 2 0 0 0 1.126-3.4L60.487.586a2 2 0 0 0-2.828 0L46.613 11.628a12 12 0 1 0-14.694 14.69L20.885 37.352a2 2 0 0 0 0 2.828l11.038 11.052a12 12 0 0 0-1.454 22.686l-4.67 13.47a9.999 9.999 0 0 0 .344 8.814l7.02 16.6c.026.063.056.126.09.186.492.901.749 1.911.746 2.938v1.92a2 2 0 0 0 4 0v-1.92a10.123 10.123 0 0 0-1.2-4.768l-7.022-16.6a1.8 1.8 0 0 0-.096-.2 6.072 6.072 0 0 1-.176-5.488l4.892-14.08c.21 0 .416.03.628.03a11.978 11.978 0 0 0 11.582-8.884L50 69.314v20.532a2 2 0 0 0 4 0v-28a6 6 0 1 1 12 0v24.222a18.1 18.1 0 0 0 1.9 8.05l.732 1.468a14.053 14.053 0 0 1 0 12.52l-2 4A6.023 6.023 0 0 0 66 114.79v3.056a2 2 0 0 0 4 0v-3.056c-.002-.31.067-.615.2-.894l2-4a18.073 18.073 0 0 0 0-16.098l-.732-1.468a14.069 14.069 0 0 1-1.374-4.59A13.959 13.959 0 0 0 80 91.846a6 6 0 0 0 6-6v-11.4a11.988 11.988 0 0 0 .218-23.218l11.036-11.052a2 2 0 0 0 0-2.824zM80 87.846a10.012 10.012 0 0 1-10-10v-10.4l1.528-1.528A11.968 11.968 0 0 0 82 74.758v11.088a2 2 0 0 1-2 2zm.286-36.334a2 2 0 0 0 1.704 3.4 8 8 0 1 1-6.8 6.8 2 2 0 0 0-3.4-1.704L70 61.802a10.001 10.001 0 0 0-20 .044v1.812l-3.666-3.666a2 2 0 0 0-3.4 1.704 8 8 0 1 1-6.8-6.8 2 2 0 0 0 1.706-3.4l-12.714-12.73 12.728-12.72a2 2 0 0 0-1.704-3.4 8 8 0 0 1-6.776-13.568 8.2 8.2 0 0 1 11.312 0 8 8 0 0 1 2.256 6.776 2 2 0 0 0 3.4 1.704L59.08 4.834l8.962 8.964a11.999 11.999 0 1 0 16 16l8.964 8.962-12.72 12.752zm37.715-9.666h-12a2 2 0 0 1 0-4h12a2 2 0 0 1 0 4zm-14.162-23.002a1.999 1.999 0 0 1-1.847-2.765c.168-.407.466-.747.847-.967l10.4-6a2 2 0 0 1 2 3.464l-10.4 6a1.984 1.984 0 0 1-1 .268zm10.39 52.001a1.975 1.975 0 0 1-1-.268l-10.4-6a2.008 2.008 0 0 1-.941-1.214 2.002 2.002 0 0 1 2.201-2.506c.261.036.513.123.74.256l10.4 6a1.994 1.994 0 0 1 .932 2.25 2.002 2.002 0 0 1-1.932 1.482zM14 41.846H2a2 2 0 1 1 0-4h12a2 2 0 0 1 0 4zm2.161-23.002a1.975 1.975 0 0 1-1-.268l-10.4-6a2 2 0 0 1 2-3.464l10.4 6a2 2 0 0 1-1 3.732zM5.772 70.845a2 2 0 0 1-1-3.732l10.4-6a1.999 1.999 0 1 1 2 3.464l-10.4 6a1.985 1.985 0 0 1-1 .268z"
    ></path>
  </symbol>

  <symbol viewBox="0 0 120 120" xmlns="http://www.w3.org/2000/svg" id="busines">
    <g>
      <path d="M119.998 116H0v4h119.998v-4zm-4.209-98.893l-8-16a2 2 0 0 0-2.682-.896h-.002l-16 8a2.001 2.001 0 0 0 1.788 3.58l11.588-5.79-3.162 9.028C85.421 54.611 49.624 82.38 7.831 86l.34 4c43.368-3.757 80.512-32.575 94.926-73.65l3.228-9.224 5.884 11.77a2 2 0 0 0 3.58-1.789zM23.999 96h-14a2 2 0 0 0-2 2v12a2 2 0 0 0 2 2h14a2 2 0 0 0 2-2V98a2 2 0 0 0-2-2zm-2 12h-10v-8h10v8zM46 90H32a2 2 0 0 0-2 2v17.999a2 2 0 0 0 2 2h14a2 2 0 0 0 2-2v-18a2 2 0 0 0-2-2zm-2 17.999H34v-14h10v14zM67.998 80h-14a2 2 0 0 0-2 2v28a2 2 0 0 0 2 2h14a2 2 0 0 0 2-2V82a2 2 0 0 0-2-2zm-2 28h-10V84h10v24z"></path>
      <path d="M89.999 66.001h-14a2 2 0 0 0-2 2V110a2 2 0 0 0 2 2h14a2 2 0 0 0 2-2V68a2 2 0 0 0-2-1.999zm-2 41.999h-10V70h10v38zm23.998-69.998h-14a2 2 0 0 0-2 2V110a2 2 0 0 0 2 2h14a2 2 0 0 0 2-2V40.001a2 2 0 0 0-2-2zm-2 69.998h-10V42.001h10V108z"></path>
    </g>
  </symbol>

  <symbol xmlns="http://www.w3.org/2000/svg" viewBox="0 0 394.963 394.963" id="pdf">
    <path d="M345.841 66.48c-13.94.785-25.876-9.879-26.661-23.818-.785-13.94 9.879-25.876 23.818-26.661a25.437 25.437 0 0 1 2.843 0 8 8 0 0 0 0-16H82.401c-22.798 0-41.28 18.482-41.28 41.28v325.76c.043 15.464 12.613 27.965 28.077 27.923.108 0 .215-.001.323-.003h256c15.402-.044 27.876-12.518 27.92-27.92V74.48a7.999 7.999 0 0 0-7.6-8zM79.558 15.92a25.437 25.437 0 0 1 2.843 0h230.88a41.211 41.211 0 0 0-8 16.64h-73.04a8 8 0 0 0 0 16h73.04a41.13 41.13 0 0 0 8 17.84H82.401c-13.94.785-25.876-9.879-26.662-23.818-.784-13.94 9.88-25.877 23.819-26.662zm258.283 351.12c.004 6.583-5.33 11.923-11.913 11.927-.136 0-.271-.002-.407-.007h-256c-6.583 0-11.92-5.337-11.92-11.92V73.76a41.04 41.04 0 0 0 25.28 8.64h254.96v284.64z"></path>
    <path d="M294.561 160.56h-194c-8.837 0-16 7.163-16 16v107.36c0 8.837 7.163 16 16 16h194c8.837 0 16-7.163 16-16V176.56c0-8.837-7.163-16-16-16zm0 123.36h-194V176.56h194v107.36z"></path>
    <path d="M166.401 216.56a19.845 19.845 0 0 0-1.36-7.44 14.8 14.8 0 0 0-3.68-6 15.273 15.273 0 0 0-6.16-3.28 39.293 39.293 0 0 0-10.24-1.04h-15.04a8.002 8.002 0 0 0-5.68 1.68 7.358 7.358 0 0 0-1.76 5.52v44.64a7.996 7.996 0 0 0 1.6 5.28 5.84 5.84 0 0 0 8.48 0 8.004 8.004 0 0 0 1.68-5.36v-16h10.72a24.721 24.721 0 0 0 16-4.56 16.478 16.478 0 0 0 5.44-13.44zm-13.04 5.04a8 8 0 0 1-4.24 2.88 23.99 23.99 0 0 1-6.96.88h-8V207.6h8a14.96 14.96 0 0 1 10.4 2.56 8.8 8.8 0 0 1 2.24 6.24 8.402 8.402 0 0 1-1.52 5.04l.08.16zm63.601-17.68a18.637 18.637 0 0 0-7.76-4 41.283 41.283 0 0 0-10.24-1.12h-15.2a6.16 6.16 0 0 0-7.2 7.2v42.48a17.2 17.2 0 0 0 .48 4.56 4.48 4.48 0 0 0 2.08 2.72 9.606 9.606 0 0 0 4.8.96h15.28a44.937 44.937 0 0 0 7.2-.48 23.015 23.015 0 0 0 5.92-1.76 19.836 19.836 0 0 0 5.12-3.36 23.986 23.986 0 0 0 4.88-6.16 28.485 28.485 0 0 0 2.8-8c.621-3.135.916-6.325.88-9.52a29.283 29.283 0 0 0-9.04-23.52zm-8.721 40.72a9.282 9.282 0 0 1-3.04 1.76 13.694 13.694 0 0 1-3.44.8h-13.52v-39.12h8c3.078-.067 6.15.31 9.12 1.12a11.52 11.52 0 0 1 6.4 5.44 25.196 25.196 0 0 1 2.56 12.8 21.435 21.435 0 0 1-6.08 17.2zm62.72-36.8a6.002 6.002 0 0 0 4.16-1.28 4.242 4.242 0 0 0 1.36-3.28 4.16 4.16 0 0 0-1.36-3.28 6.003 6.003 0 0 0-4.24-1.2h-27.6a9.907 9.907 0 0 0-4.08.72 4.64 4.64 0 0 0-2.32 2.32 9.76 9.76 0 0 0-.72 4.16v44.56a8 8 0 0 0 1.6 5.36 5.92 5.92 0 0 0 8.48 0 8 8 0 0 0 1.6-5.36v-19.12h19.28a5.84 5.84 0 0 0 4-1.2 4.078 4.078 0 0 0 1.36-3.2 4.081 4.081 0 0 0-1.28-3.2 5.762 5.762 0 0 0-4-1.2h-19.36v-14.8h23.12z"></path>
  </symbol>
</svg>