<svg width="30" height="30" viewBox="0 0 30 30" fill="none" xmlns="http://www.w3.org/2000/svg">
<path d="M26.7391 0H3.26087C1.46293 0 0 1.46293 0 3.26087V26.7391C0 28.5371 1.46293 30 3.26087 30H26.7391C28.5371 30 30 28.5371 30 26.7391V3.26087C30 1.46293 28.5371 0 26.7391 0ZM28.6957 26.7391C28.6957 27.8177 27.8177 28.6957 26.7391 28.6957H3.26087C2.1823 28.6957 1.30435 27.8177 1.30435 26.7391V3.26087C1.30435 2.1823 2.1823 1.30435 3.26087 1.30435H26.7391C27.8177 1.30435 28.6957 2.1823 28.6957 3.26087V26.7391Z" fill="white"/>
<path d="M20.2171 18.2608H13.0432V15.6521H17.6084C19.4064 15.6521 20.8693 14.1891 20.8693 12.3912C20.8693 10.5933 19.4064 9.13033 17.6084 9.13033H13.0432V8.47815C13.0432 6.68022 11.5803 5.21729 9.78235 5.21729C7.98442 5.21729 6.52148 6.68022 6.52148 8.47815V18.9129C6.52148 22.1496 9.15438 24.7825 12.391 24.7825H20.2171C22.0151 24.7825 23.478 23.3196 23.478 21.5216C23.478 19.7237 22.0151 18.2608 20.2171 18.2608ZM20.2171 23.4782H12.391C9.87438 23.4782 7.82583 21.4296 7.82583 18.9129V8.47815C7.82583 7.39958 8.70378 6.52163 9.78235 6.52163C10.8609 6.52163 11.7389 7.39958 11.7389 8.47815V9.7825C11.7389 10.1433 12.0303 10.4347 12.391 10.4347H17.6084C18.687 10.4347 19.565 11.3126 19.565 12.3912C19.565 13.4698 18.687 14.3477 17.6084 14.3477H12.391C12.0303 14.3477 11.7389 14.6391 11.7389 14.9999V18.9129C11.7389 19.2737 12.0303 19.5651 12.391 19.5651H20.2171C21.2957 19.5651 22.1737 20.4431 22.1737 21.5216C22.1737 22.6002 21.2957 23.4782 20.2171 23.4782Z" fill="white"/>
</svg>
