<svg width="80" height="220" viewBox="0 0 80 220" fill="none" xmlns="http://www.w3.org/2000/svg">
<path fill-rule="evenodd" clip-rule="evenodd" d="M75.8343 110.514C76.368 109.65 79.858 103.684 79.858 103.684L66.8426 95.908L61.7104 104.507C60.725 102.985 58.8774 101.709 56.9066 100.681C56.8655 96.8543 55.6748 93.6862 53.5398 89.1603C51.8565 85.5807 49.393 85.3338 48.9003 85.2104C45.9852 84.5109 45.8209 80.6434 45.164 77.8044C47.3401 76.1175 44.0965 72.6613 44.0965 69.164C46.1083 68.5057 44.1376 67.1891 44.6303 65.9136C44.7945 65.5433 44.9177 64.8027 44.9998 63.8975H54.1146L44.9587 61.9226C44.9177 61.3877 44.7945 60.8117 44.6713 60.2768L54.1146 56.0389L43.727 58.1373C43.3575 57.5613 42.9469 57.0264 42.3721 56.5326C42.1668 56.3681 41.9615 56.2035 41.7562 56.0389L47.0527 46.9048L38.759 54.5577C37.9378 54.3108 37.0756 54.1462 36.2545 54.064L33.7499 42.7081L32.7235 54.2697C31.9844 54.4343 31.2864 54.64 30.6295 54.8869C28.864 53.2822 21.8431 47.2751 21.8431 47.2751L27.8376 56.6149C27.3859 57.0264 26.9754 57.5201 26.6469 58.055L18.3532 57.3144C17.2446 50.2375 15.4381 47.3985 14.6169 44.1893C13.6315 40.1571 13.3031 36.1661 13.6315 33.7385C14.0421 30.7761 13.8368 27.7314 13.4262 26.5794C13.0157 25.4273 12.3587 24.7279 10.9217 24.2342C10.9217 23.6581 11.0449 22.7118 11.0859 22.0535C12.1945 21.5186 12.0713 21.066 11.7018 19.914C12.3177 19.7494 14.2063 19.2968 15.4791 18.3916C16.9983 17.363 15.4381 15.4704 15.1917 14.9766C14.9454 14.4829 15.1096 13.9892 15.4381 13.7011C15.7665 13.372 16.095 12.8782 15.4791 12.5079C14.4116 11.9319 12.6872 11.5205 10.7164 11.3148V9.66897C12.1124 8.96952 13.0567 7.07687 12.8925 5.14307C12.6872 2.92126 11.7018 1.02861 10.5932 0.0822891C10.5932 0.329157 10.3058 1.52235 9.5668 2.38638C9.15622 1.56349 8.62247 0.781747 8.45824 0C7.63708 0.740602 7.14438 1.68693 6.89804 2.6744C6.40534 1.81036 5.33784 1.15205 4.63985 0.864036C4.96832 2.34524 4.14716 4.23789 4.02398 4.81391C3.73658 6.33626 3.53129 8.02319 5.58418 9.38096V11.1502C4.14716 11.2736 2.75119 11.5205 1.51945 11.8908C-0.163924 12.4257 0.287713 13.1251 0.493002 13.4543C0.698292 13.7834 1.31416 13.948 0.451944 15.1823C-0.492388 16.499 -0.287098 18.5562 3.40811 19.5848C3.40811 20.2843 2.71013 21.5186 4.3935 22.8352C3.94187 23.2055 3.36706 23.905 3.40811 24.5222C3.44917 25.3039 4.18821 25.3862 3.98292 25.9211C3.73658 26.4971 2.91542 27.4023 4.1061 27.9783C2.62801 29.1715 4.35245 31.9693 5.37889 33.6974C4.8862 38.717 6.03582 39.2108 6.98015 39.5399C8.37612 47.8511 6.32323 54.8046 9.5668 64.2678C9.68998 64.597 9.64892 64.7616 9.44363 65.0084C5.83053 70.3984 4.80408 74.7597 5.00937 78.9976C5.1736 81.8777 6.85698 84.4286 10.0595 83.9349C8.82776 85.4573 7.88343 87.8437 12.564 90.3946C11.7429 92.3696 11.0449 94.6325 12.6051 95.2497C9.93632 99.323 12.564 100.475 13.0978 101.339C14.4116 103.479 11.9892 105.454 14.0011 107.634C12.4819 110.597 10.7164 115.822 10.388 121.006C10.1416 122.076 9.97738 123.105 9.89527 124.051C9.73103 127.507 12.7283 128.947 15.0686 127.589C14.9043 128.659 14.9043 129.276 15.4381 130.511C14.4938 132.115 12.7693 134.46 11.5786 137.958C9.97738 142.73 14.4527 147.174 14.2063 149.931C13.96 152.729 14.2474 157.378 15.356 161.78C13.9189 164.619 12.0303 168.528 14.8222 171.573C12.4409 178.403 13.5494 189.018 14.2063 191.61C14.8222 194.038 15.6844 202.02 9.89527 208.891C9.73103 209.097 9.5668 209.261 9.40257 209.467C9.23834 209.673 9.03305 209.878 8.86882 210.043C8.04766 210.208 4.55774 210.413 2.29955 211.277V219.918H63.7222C63.7222 219.177 63.7222 214.157 63.7222 214.157C63.558 211.771 62.7779 209.878 59.1648 207.78C59.0416 204.036 58.59 198.029 57.9741 191.857C61.7514 190.993 60.6018 183.71 59.329 176.058C61.1766 175.276 61.0124 172.519 60.725 167.829C61.423 167.582 61.9978 167.376 62.162 165.977C61.5051 160.094 60.5607 147.503 59.4932 140.673C60.3144 140.262 60.9303 139.562 60.8481 137.793C66.7605 137.793 67.0889 127.301 67.2942 123.063C68.0743 122.981 68.4028 122.899 69.1418 122.734C72.8371 121.788 76.5323 113.97 76.9428 113.148C77.4355 112.448 76.7376 111.255 75.8343 110.514ZM19.1333 60.8117C18.7227 60.4002 18.4764 59.7419 18.4353 58.343L25.4562 60.6882C25.333 61.1408 25.292 61.5934 25.292 62.0872L21.2272 63.2803C20.8988 61.7991 19.3796 61.0585 19.1333 60.8117ZM26.0721 69.164C26.031 70.1515 25.5794 71.2624 24.5529 72.1264C24.2245 71.5916 23.855 71.0567 23.4033 70.5629C22.9106 70.0281 22.6643 69.4109 22.8285 68.2588C23.0749 66.6131 22.5822 65.9959 22.1716 65.5022C22.0074 65.2964 21.8431 65.1319 21.6789 64.885C23.0749 64.7204 24.594 64.5147 25.7026 64.3913C25.8668 64.8027 26.0721 65.2141 26.3595 65.6256C26.2774 66.1605 25.99 67.0245 25.7026 68.012C25.3741 68.9583 26.0721 68.8349 26.0721 69.164Z" fill="#216628"/>
</svg>
